<svg id="Layer_1" data-name="Layer 1" xmlns="http://www.w3.org/2000/svg" viewBox="0 0 700 550"><title>man teaching in a class</title><path d="M423.07523,462.351c15.255-4.769,28.94231-9.64118,45.40836-18.88808,16.98237-9.53791,92.422-54.9275,102.23218-133.48387a149.84235,149.84235,0,0,0-6.25222-63.98664c-3.03223-8.89016-9.322-26.74559-25.19662-44.40388-19.43256-21.62928-41.60633-30.01251-54.60832-34.7533a157.56666,157.56666,0,0,0-61.22665-9.0967c-11.791.3849-32.60352,1.24857-56.26056,11.58444-15.43339,6.74038-25.02763,14.42891-39.16553,25.91947-22.39908,18.22155-25.34682,25.80682-64.53113,63.43277-10.75832,10.32648-19.60154,18.46563-33.10107,26.48273-9.35955,5.55753-16.926,8.66486-30.88557,14.335-34.31209,13.94075-44.08148,16.76341-55.30918,24.61154-21.83582,15.27381-20.42149,31.93065-21.36026,35.51675a70.52719,70.52719,0,0,0-1.66163,28.135c2.86326,18.84114,13.01137,31.15782,19.31053,38.61166A106.17324,106.17324,0,0,0,171.35313,451.189a197.37436,197.37436,0,0,0,25.30927,11.162Z" fill="#efedef"/><path d="M471.50691,449.03375l-.459-.81836c22.43652-12.60449,96.40918-59.85547,106.248-138.69141a156.16379,156.16379,0,0,0-6.49024-66.4375c-2.7959-8.19824-9.34375-27.39746-26.14258-46.08984-20.582-22.90137-44.07324-31.4668-56.69336-36.06836a163.43454,163.43454,0,0,0-63.59863-9.45312c-11.66406.37988-33.374,1.085-58.43262,12.02636l-.375-.85937c25.22364-11.01465,47.88575-11.751,58.77637-12.10449a164.20523,164.20523,0,0,1,63.95215,9.50781c12.69629,4.63086,36.33008,13.24805,57.06836,36.32422,16.92871,18.835,23.51953,38.16113,26.334,46.41406a157.16048,157.16048,0,0,1,6.53321,66.85742C568.33406,388.91266,494.04109,436.37555,471.50691,449.03375Z" fill="#efedef"/><path d="M501.33723,238.75929V462.12567H551.8358V238.75929a2.42315,2.42315,0,0,0-2.42315-2.42315H503.76038A2.42315,2.42315,0,0,0,501.33723,238.75929Z" fill="#935b50"/><rect x="504.12388" y="276.97241" width="44.92526" height="33.36682" rx="2.42315" fill="#e19974"/><rect x="504.12388" y="239.97087" width="44.92526" height="33.36682" rx="2.42315" fill="#e19974"/><path d="M546.19545,269.10284a1.497,1.497,0,1,1-2.11529,2.11536c.53289-.76587.59851-1.05811.83215-1.2832C545.13954,269.704,545.43416,269.63592,546.19545,269.10284Z" fill="#d6694b"/><path d="M544.08016,242.09033a1.497,1.497,0,1,1,2.11529,2.11529c-.76593-.53289-1.05816-.59844-1.28314-.83209C544.68129,243.14624,544.61318,242.85168,544.08016,242.09033Z" fill="#d6694b"/><path d="M506.97756,244.20562a1.497,1.497,0,1,1,2.11529-2.11529c-.5329.76593-.59851,1.05817-.83209,1.2832C508.03346,243.60449,507.73891,243.6726,506.97756,244.20562Z" fill="#d6694b"/><path d="M509.09285,271.2182a1.497,1.497,0,1,1-2.11529-2.11536c.76593.533,1.05816.59851,1.2832.83216C508.49172,270.16229,508.55983,270.45685,509.09285,271.2182Z" fill="#d6694b"/><path d="M546.19545,306.10443a1.497,1.497,0,1,1-2.11529,2.11536c.53289-.766.59851-1.05823.83215-1.28321C545.13954,306.70562,545.43416,306.63751,546.19545,306.10443Z" fill="#d6694b"/><path d="M544.08016,279.09186a1.497,1.497,0,1,1,2.11529,2.11535c-.76593-.533-1.05816-.59851-1.28314-.83215C544.68129,280.14776,544.61318,279.85321,544.08016,279.09186Z" fill="#d6694b"/><path d="M506.97756,281.20721a1.497,1.497,0,1,1,2.11529-2.11535c-.5329.766-.59851,1.05822-.83209,1.2832C508.03346,280.606,507.73891,280.67413,506.97756,281.20721Z" fill="#d6694b"/><path d="M509.09285,308.21979a1.497,1.497,0,1,1-2.11529-2.11536c.76593.533,1.05816.59851,1.2832.83215C508.49172,307.16388,508.55983,307.45843,509.09285,308.21979Z" fill="#d6694b"/><rect x="504.12388" y="350.9755" width="44.92526" height="33.36682" rx="2.42315" fill="#e19974"/><rect x="504.12388" y="387.97705" width="44.92526" height="33.36682" rx="2.42315" fill="#e19974"/><rect x="519.68053" y="252.11086" width="13.81197" height="5.08862" rx="0.93877" fill="#d6694b"/><rect x="519.68053" y="363.1155" width="13.81197" height="5.08862" rx="0.93877" fill="#d6694b"/><rect x="519.68053" y="400.11705" width="13.81197" height="5.08862" rx="0.93877" fill="#d6694b"/><rect x="519.68053" y="289.11241" width="13.81197" height="5.08862" rx="0.93877" fill="#d6694b"/><path d="M546.19545,380.10748a1.497,1.497,0,1,1-2.11529,2.11536c.53289-.76587.59851-1.05811.83215-1.28321C545.13954,380.70868,545.43416,380.64056,546.19545,380.10748Z" fill="#d6694b"/><path d="M544.08016,353.095a1.497,1.497,0,1,1,2.11529,2.11523c-.76593-.53283-1.05816-.59851-1.28314-.83215C544.68129,354.15082,544.61318,353.85626,544.08016,353.095Z" fill="#d6694b"/><path d="M506.97756,355.21026a1.497,1.497,0,1,1,2.11529-2.11523c-.5329.76587-.59851,1.0581-.83209,1.28308C508.03346,354.60919,507.73891,354.67718,506.97756,355.21026Z" fill="#d6694b"/><path d="M509.09285,382.22284a1.497,1.497,0,1,1-2.11529-2.11536c.76593.533,1.05816.59851,1.2832.83215C508.49172,381.16693,508.55983,381.46148,509.09285,382.22284Z" fill="#d6694b"/><path d="M546.19545,417.10907a1.497,1.497,0,1,1-2.11529,2.11535c.53289-.766.59851-1.05822.83215-1.2832C545.13954,417.71026,545.43416,417.64215,546.19545,417.10907Z" fill="#d6694b"/><path d="M544.08016,390.09649a1.497,1.497,0,1,1,2.11529,2.11536c-.76593-.533-1.05816-.59851-1.28314-.83215C544.68129,391.1524,544.61318,390.85785,544.08016,390.09649Z" fill="#d6694b"/><path d="M506.97756,392.21185a1.497,1.497,0,1,1,2.11529-2.11536c-.5329.766-.59851,1.05823-.83209,1.28321C508.03346,391.61065,507.73891,391.67877,506.97756,392.21185Z" fill="#d6694b"/><path d="M509.09285,419.22442a1.497,1.497,0,1,1-2.11529-2.11535c.76593.533,1.05816.59851,1.2832.83215C508.49172,418.16852,508.55983,418.46307,509.09285,419.22442Z" fill="#d6694b"/><path d="M515.98815,408.8792s24.6496.50021,28.39437-3.66491c0,0-8.072,28.92052-1.97819,43.10981l-27.416-2.89518S518.19441,423.03064,515.98815,408.8792Z" fill="#7ca1b1"/><path d="M509.95245,412.4222s24.6496.50022,28.39437-3.66491c0,0-8.072,28.92053-1.9782,43.10982l-27.416-2.89519S512.1587,426.57364,509.95245,412.4222Z" fill="#f65b2b"/><path d="M513.03574,415.14477s24.6496.50022,28.39437-3.66491c0,0-8.072,28.92052-1.9782,43.10982l-27.416-2.89519S515.242,429.29621,513.03574,415.14477Z" fill="#fff"/><path d="M516.0536,299.60753s24.64959.50022,28.39436-3.66491c0,0-8.072,28.92053-1.97819,43.10982l-27.41605-2.89518S518.25985,313.759,516.0536,299.60753Z" fill="#ffba55"/><path d="M510.01789,303.15054s24.6496.50021,28.39437-3.66492c0,0-8.072,28.92053-1.9782,43.10982L509.018,339.70026S512.22414,317.302,510.01789,303.15054Z" fill="#f65b2b"/><path d="M513.10118,305.8731s24.6496.50022,28.39437-3.66491c0,0-8.072,28.92053-1.97819,43.10982l-27.41605-2.89518S515.30744,320.02454,513.10118,305.8731Z" fill="#fff"/><rect x="504.12388" y="424.9786" width="44.92526" height="33.36682" rx="2.42315" fill="#e19974"/><rect x="519.68053" y="437.11859" width="13.81197" height="5.08862" rx="0.93877" fill="#d6694b"/><path d="M546.19545,454.11065a1.497,1.497,0,1,1-2.11529,2.11524c.53289-.76587.59851-1.05811.83215-1.28308C545.13954,454.71173,545.43416,454.64361,546.19545,454.11065Z" fill="#d6694b"/><path d="M544.08016,427.09808a1.497,1.497,0,1,1,2.11529,2.11536c-.76593-.533-1.05816-.59851-1.28314-.83216C544.68129,428.154,544.61318,427.85943,544.08016,427.09808Z" fill="#d6694b"/><path d="M506.97756,429.21344a1.497,1.497,0,1,1,2.11529-2.11536c-.5329.76587-.59851,1.05811-.83209,1.2832C508.03346,428.61224,507.73891,428.68036,506.97756,429.21344Z" fill="#d6694b"/><path d="M509.09285,456.22589a1.497,1.497,0,1,1-2.11529-2.11524c.76593.53284,1.05816.59852,1.2832.83216C508.49172,455.1701,508.55983,455.46466,509.09285,456.22589Z" fill="#d6694b"/><rect x="504.12388" y="313.97396" width="44.92526" height="33.36682" rx="2.42315" fill="#e19974"/><rect x="519.68053" y="326.11395" width="13.81197" height="5.08862" rx="0.93877" fill="#d6694b"/><path d="M546.19545,343.106a1.497,1.497,0,1,1-2.11529,2.11523c.53289-.76587.59851-1.05811.83215-1.28308C545.13954,343.70709,545.43416,343.639,546.19545,343.106Z" fill="#d6694b"/><path d="M544.08016,316.09344a1.497,1.497,0,1,1,2.11529,2.11536c-.76593-.533-1.05816-.59851-1.28314-.83215C544.68129,317.14935,544.61318,316.85479,544.08016,316.09344Z" fill="#d6694b"/><path d="M506.97756,318.2088a1.497,1.497,0,1,1,2.11529-2.11536c-.5329.76587-.59851,1.05811-.83209,1.28321C508.03346,317.6076,507.73891,317.67572,506.97756,318.2088Z" fill="#d6694b"/><path d="M509.09285,345.22125a1.497,1.497,0,1,1-2.11529-2.11523c.76593.53283,1.05816.59851,1.2832.83215C508.49172,344.16546,508.55983,344.46,509.09285,345.22125Z" fill="#d6694b"/><rect x="193.17264" y="109.67842" width="259.02809" height="217.67374" rx="3.21365" fill="#904d24"/><rect x="206.23364" y="120.65421" width="232.90609" height="195.72217" rx="2.88956" fill="#558031"/><path d="M234.6056,187.50153a11.16585,11.16585,0,0,1,2.68155.29979,5.99976,5.99976,0,0,1,2.06915.91218,4.1145,4.1145,0,0,1,1.32014,1.55117,4.96987,4.96987,0,0,1,.463,2.2195v6.09835a1.69074,1.69074,0,0,1-.39467,1.157,3.97109,3.97109,0,0,1-.93923.77559,9.73233,9.73233,0,0,1-4.98218,1.06161,11.37508,11.37508,0,0,1-2.6-.27228,6.13386,6.13386,0,0,1-1.98756-.81684,3.736,3.736,0,0,1-1.27935-1.388,4.11174,4.11174,0,0,1-.44921-1.96,3.68739,3.68739,0,0,1,1.11616-2.886,6.02159,6.02159,0,0,1,3.4576-1.25231l3.56623-.38138v-.19068a1.1672,1.1672,0,0,0-.694-1.12946,4.68061,4.68061,0,0,0-2.0013-.34012,9.28088,9.28088,0,0,0-2.0146.21727,10.81151,10.81151,0,0,0-1.76937.54456,1.88608,1.88608,0,0,1-.59911-.74808,2.37176,2.37176,0,0,1-.24477-1.04879,1.74743,1.74743,0,0,1,.34012-1.12946,2.63479,2.63479,0,0,1,1.04832-.72149,8.15992,8.15992,0,0,1,1.86471-.43547A16.18689,16.18689,0,0,1,234.6056,187.50153Zm.21773,10.69961a6.13668,6.13668,0,0,0,1.02083-.09534,2.48541,2.48541,0,0,0,.83059-.25853V195.669l-1.96051.16318a3.0177,3.0177,0,0,0-1.25231.32729.88022.88022,0,0,0-.49.81684,1.08371,1.08371,0,0,0,.42217.88468A2.31242,2.31242,0,0,0,234.82333,198.20114Z" fill="#fff"/><path d="M249.11576,184.18008a8.783,8.783,0,0,1,2.74985.39513,6.41063,6.41063,0,0,1,2.04164,1.07537,4.53132,4.53132,0,0,1,1.27981,1.60618,4.61288,4.61288,0,0,1,.43546,1.98755q0,2.85894-3.2394,5.44469l-3.56669,2.85849h6.53381a4.514,4.514,0,0,1,.31308.76275,3.26356,3.26356,0,0,1,.14989,1.00661,1.896,1.896,0,0,1-.43546,1.40266,1.57446,1.57446,0,0,1-1.14367.42171h-9.44684a2.8989,2.8989,0,0,1-.93923-1.04787,3.17341,3.17341,0,0,1-.34013-1.51083,3.007,3.007,0,0,1,.38092-1.56584,3.88475,3.88475,0,0,1,.84389-1.02128l3.75692-3.21236q.70819-.5982,1.17071-1.07537a9.12035,9.12035,0,0,0,.749-.85718,2.93035,2.93035,0,0,0,.408-.70775,1.7746,1.7746,0,0,0,.12285-.62615,1.36188,1.36188,0,0,0-.667-1.19822,2.95708,2.95708,0,0,0-1.64743-.43546,5.24963,5.24963,0,0,0-1.9463.34012,7.76894,7.76894,0,0,0-1.42925.7215,2.71114,2.71114,0,0,1-.76229-.81684,2.14559,2.14559,0,0,1-.29932-1.14321,2.24592,2.24592,0,0,1,1.33389-2.10949A7.82886,7.82886,0,0,1,249.11576,184.18008Z" fill="#fff"/><path d="M265.91325,199.77982a2.69672,2.69672,0,0,1-.80309.17693,9.69305,9.69305,0,0,1-1.12991.06784,3.15275,3.15275,0,0,1-1.68823-.3667,1.749,1.749,0,0,1-.57161-1.56584V195.097h-4.11079a2.68072,2.68072,0,0,1-.31308-.78934,4.02534,4.02534,0,0,1-.12238-.98,1.99593,1.99593,0,0,1,.43546-1.42924,1.55745,1.55745,0,0,1,1.17071-.44922h2.94008v-4.57376a7.83323,7.83323,0,0,1,.83059-.17694,6.566,6.566,0,0,1,1.10242-.09534,3.07247,3.07247,0,0,1,1.67448.38138,1.80156,1.80156,0,0,1,.58535,1.60617v2.85849h4.0292q.13545.32728.28558.80309a3.30971,3.30971,0,0,1,.14989.99378,1.95447,1.95447,0,0,1-.43547,1.40265,1.52353,1.52353,0,0,1-1.14367.4483h-2.88553Z" fill="#fff"/><path d="M272.66434,183.41825a7.387,7.387,0,0,1,.87139-.17694,7.80775,7.80775,0,0,1,1.2248-.09534,6.44269,6.44269,0,0,1,1.07537.08159,1.82857,1.82857,0,0,1,.80309.32637,1.47711,1.47711,0,0,1,.49.66741,3.1024,3.1024,0,0,1,.16365,1.10287v2.6678a6.59538,6.59538,0,0,1,1.2931-.38138,7.73632,7.73632,0,0,1,1.34765-.1091,6.68952,6.68952,0,0,1,2.47756.463,6.14811,6.14811,0,0,1,2.06869,1.34765,6.26522,6.26522,0,0,1,1.416,2.192,9.17229,9.17229,0,0,1-.01375,6.11118,5.88649,5.88649,0,0,1-1.48379,2.192,6.29182,6.29182,0,0,1-2.32767,1.32015,9.72389,9.72389,0,0,1-3.03543.44921,9.61731,9.61731,0,0,1-3.04917-.42171,8.00184,8.00184,0,0,1-2.12369-1.04787,2.5624,2.5624,0,0,1-1.19776-2.17824Zm6.37062,14.51061a2.36222,2.36222,0,0,0,1.9463-.85809,3.97421,3.97421,0,0,0,.69446-2.54495,3.91817,3.91817,0,0,0-.70775-2.55962,2.3614,2.3614,0,0,0-1.906-.84343,3.56734,3.56734,0,0,0-.93923.1091,5.43735,5.43735,0,0,0-.85764.32637v5.93516a2.80375,2.80375,0,0,0,.7215.31261A3.82064,3.82064,0,0,0,279.035,197.92886Z" fill="#fff"/><path d="M293.8174,184.18008a8.783,8.783,0,0,1,2.74985.39513,6.41052,6.41052,0,0,1,2.04164,1.07537,4.53121,4.53121,0,0,1,1.27981,1.60618,4.61289,4.61289,0,0,1,.43547,1.98755q0,2.85894-3.23941,5.44469l-3.56668,2.85849h6.53381a4.51406,4.51406,0,0,1,.31307.76275,3.26356,3.26356,0,0,1,.14989,1.00661,1.89592,1.89592,0,0,1-.43546,1.40266,1.57446,1.57446,0,0,1-1.14367.42171h-9.44684a2.8989,2.8989,0,0,1-.93923-1.04787,3.17341,3.17341,0,0,1-.34012-1.51083,3.007,3.007,0,0,1,.38091-1.56584,3.885,3.885,0,0,1,.84389-1.02128l3.75692-3.21236q.70819-.5982,1.17071-1.07537a9.12035,9.12035,0,0,0,.749-.85718,2.93035,2.93035,0,0,0,.408-.70775,1.7746,1.7746,0,0,0,.12285-.62615,1.36186,1.36186,0,0,0-.66695-1.19822,2.95708,2.95708,0,0,0-1.64743-.43546,5.24963,5.24963,0,0,0-1.9463.34012,7.7685,7.7685,0,0,0-1.42924.7215,2.71105,2.71105,0,0,1-.7623-.81684,2.14568,2.14568,0,0,1-.29932-1.14321,2.24591,2.24591,0,0,1,1.3339-2.10949A7.82879,7.82879,0,0,1,293.8174,184.18008Z" fill="#fff"/><path d="M302.36581,192.21189a2.68884,2.68884,0,0,1-.31308-.78934,4.03824,4.03824,0,0,1-.12238-.98094,1.99593,1.99593,0,0,1,.43546-1.42924,1.55745,1.55745,0,0,1,1.17071-.44922H313.065q.13614.32728.28557.80309a3.29931,3.29931,0,0,1,.1499.99378,1.953,1.953,0,0,1-.43547,1.40265,1.52349,1.52349,0,0,1-1.14367.44922Zm0,5.41719a2.67854,2.67854,0,0,1-.31308-.78934,4.031,4.031,0,0,1-.12238-.98,1.99446,1.99446,0,0,1,.43546-1.42924,1.554,1.554,0,0,1,1.17071-.44922H313.065q.13614.3273.28557.80309a3.295,3.295,0,0,1,.1499.99378,1.95054,1.95054,0,0,1-.43547,1.40174,1.52009,1.52009,0,0,1-1.14367.44922Z" fill="#fff"/><path d="M323.32864,191.15027a3.839,3.839,0,0,0-1.2931.21728,3.0063,3.0063,0,0,0-1.06207.6399,3.13162,3.13162,0,0,0-.7215,1.04787,3.667,3.667,0,0,0-.27182,1.4705,3.18175,3.18175,0,0,0,.96627,2.53211,3.45747,3.45747,0,0,0,2.35472.84343,4.67945,4.67945,0,0,0,1.416-.19069,8.57694,8.57694,0,0,0,1.06162-.408,2.82009,2.82009,0,0,1,.81684.83059,2.03706,2.03706,0,0,1,.27228,1.07537,1.904,1.904,0,0,1-1.06208,1.72811,5.90354,5.90354,0,0,1-2.94007.6124,9.05974,9.05974,0,0,1-3.10372-.50331,7.0093,7.0093,0,0,1-2.38177-1.41549,6.25652,6.25652,0,0,1-1.53834-2.192,7.14858,7.14858,0,0,1-.54456-2.831,7.833,7.833,0,0,1,.58536-3.14452,6.07976,6.07976,0,0,1,1.59288-2.21858,6.73982,6.73982,0,0,1,2.32768-1.30731,8.86734,8.86734,0,0,1,2.79019-.43547,5.43675,5.43675,0,0,1,3.02212.70775,2.12091,2.12091,0,0,1,1.06162,1.82437,1.98178,1.98178,0,0,1-.24523.96627,3.37271,3.37271,0,0,1-.57161.77651,8.83065,8.83065,0,0,0-1.11616-.42263A4.73739,4.73739,0,0,0,323.32864,191.15027Z" fill="#fff"/><path d="M334.32666,184.18008a8.783,8.783,0,0,1,2.74985.39513,6.41063,6.41063,0,0,1,2.04164,1.07537,4.53121,4.53121,0,0,1,1.27981,1.60618,4.61289,4.61289,0,0,1,.43547,1.98755q0,2.85894-3.23941,5.44469l-3.56668,2.85849h6.53381a4.51489,4.51489,0,0,1,.31307.76275,3.26356,3.26356,0,0,1,.14989,1.00661,1.89592,1.89592,0,0,1-.43546,1.40266,1.57446,1.57446,0,0,1-1.14367.42171h-9.44684a2.8989,2.8989,0,0,1-.93923-1.04787,3.17341,3.17341,0,0,1-.34012-1.51083,3.007,3.007,0,0,1,.38091-1.56584,3.885,3.885,0,0,1,.84389-1.02128l3.75692-3.21236q.70819-.5982,1.17071-1.07537a9.12035,9.12035,0,0,0,.749-.85718,2.93035,2.93035,0,0,0,.408-.70775,1.7746,1.7746,0,0,0,.12285-.62615,1.36188,1.36188,0,0,0-.66695-1.19822,2.95708,2.95708,0,0,0-1.64743-.43546,5.24963,5.24963,0,0,0-1.9463.34012,7.76894,7.76894,0,0,0-1.42925.7215,2.71114,2.71114,0,0,1-.76229-.81684,2.14568,2.14568,0,0,1-.29932-1.14321,2.24591,2.24591,0,0,1,1.3339-2.10949A7.82879,7.82879,0,0,1,334.32666,184.18008Z" fill="#fff"/><path d="M236.6202,223.85691a3.839,3.839,0,0,0-1.2931.21728,3.00643,3.00643,0,0,0-1.06208.6399,3.13174,3.13174,0,0,0-.72149,1.04787,3.667,3.667,0,0,0-.27183,1.4705,3.18174,3.18174,0,0,0,.96628,2.53211,3.45747,3.45747,0,0,0,2.35472.84343,4.67945,4.67945,0,0,0,1.41595-.19069,8.57755,8.57755,0,0,0,1.06162-.408,2.82009,2.82009,0,0,1,.81684.83059,2.03706,2.03706,0,0,1,.27228,1.07537,1.90406,1.90406,0,0,1-1.06208,1.72811,5.90358,5.90358,0,0,1-2.94008.6124,9.06,9.06,0,0,1-3.10372-.5033,7.00934,7.00934,0,0,1-2.38176-1.4155,6.25639,6.25639,0,0,1-1.53834-2.192,7.14854,7.14854,0,0,1-.54456-2.831,7.83283,7.83283,0,0,1,.58536-3.14452,6.07976,6.07976,0,0,1,1.59288-2.21858,6.74,6.74,0,0,1,2.32768-1.30731,8.86732,8.86732,0,0,1,2.79018-.43547,5.43677,5.43677,0,0,1,3.02213.70775,2.12091,2.12091,0,0,1,1.06162,1.82437,1.98168,1.98168,0,0,1-.24524.96627,3.37239,3.37239,0,0,1-.5716.77651,8.83026,8.83026,0,0,0-1.11617-.42263A4.73728,4.73728,0,0,0,236.6202,223.85691Z" fill="#fff"/><path d="M247.61868,216.88672a8.78285,8.78285,0,0,1,2.74984.39513,6.41058,6.41058,0,0,1,2.04165,1.07537A4.53143,4.53143,0,0,1,253.69,219.9634a4.613,4.613,0,0,1,.43546,1.98755q0,2.85894-3.2394,5.44469l-3.56669,2.85849h6.53381a4.514,4.514,0,0,1,.31308.76275,3.26356,3.26356,0,0,1,.14989,1.00661,1.89591,1.89591,0,0,1-.43547,1.40266,1.57443,1.57443,0,0,1-1.14366.42171h-9.44685a2.899,2.899,0,0,1-.93923-1.04787,3.17338,3.17338,0,0,1-.34012-1.51083,3.007,3.007,0,0,1,.38092-1.56584,3.88473,3.88473,0,0,1,.84388-1.02128l3.75692-3.21236q.70821-.5982,1.17072-1.07537a9.11909,9.11909,0,0,0,.749-.85718,2.93017,2.93017,0,0,0,.408-.70775,1.7746,1.7746,0,0,0,.12285-.62615,1.36185,1.36185,0,0,0-.66695-1.19821,2.957,2.957,0,0,0-1.64744-.43547,5.24966,5.24966,0,0,0-1.9463.34012,7.76914,7.76914,0,0,0-1.42924.7215,2.711,2.711,0,0,1-.76229-.81684,2.14559,2.14559,0,0,1-.29933-1.14321,2.24593,2.24593,0,0,1,1.3339-2.10949A7.82886,7.82886,0,0,1,247.61868,216.88672Z" fill="#fff"/><path d="M264.41617,232.48646a2.6968,2.6968,0,0,1-.80309.17693,9.69309,9.69309,0,0,1-1.12992.06784,3.1528,3.1528,0,0,1-1.68823-.3667,1.749,1.749,0,0,1-.5716-1.56584V227.8036h-4.11079a2.68049,2.68049,0,0,1-.31308-.78933,4.02544,4.02544,0,0,1-.12239-.98,1.99589,1.99589,0,0,1,.43547-1.42924,1.55743,1.55743,0,0,1,1.17071-.44922h2.94008V219.582a7.83266,7.83266,0,0,1,.83059-.17694,6.56594,6.56594,0,0,1,1.10242-.09534,3.07241,3.07241,0,0,1,1.67447.38138,1.80155,1.80155,0,0,1,.58536,1.60618v2.85848h4.0292q.13545.32729.28557.80309a3.30939,3.30939,0,0,1,.14989.99378,1.95447,1.95447,0,0,1-.43546,1.40265,1.52355,1.52355,0,0,1-1.14367.4483h-2.88553Z" fill="#fff"/><path d="M276.55785,220.20817a11.16585,11.16585,0,0,1,2.68155.29979,5.99967,5.99967,0,0,1,2.06915.91218,4.1144,4.1144,0,0,1,1.32015,1.55118,4.96993,4.96993,0,0,1,.463,2.21949v6.09835a1.69079,1.69079,0,0,1-.39467,1.157,3.971,3.971,0,0,1-.93923.77559,9.73236,9.73236,0,0,1-4.98218,1.06161,11.37511,11.37511,0,0,1-2.6-.27228,6.13381,6.13381,0,0,1-1.98755-.81684,3.73589,3.73589,0,0,1-1.27935-1.388,4.11169,4.11169,0,0,1-.44922-1.96006,3.68736,3.68736,0,0,1,1.11617-2.886,6.02153,6.02153,0,0,1,3.45759-1.25231l3.56623-.38138v-.19068a1.1672,1.1672,0,0,0-.694-1.12946,4.6807,4.6807,0,0,0-2.0013-.34012,9.281,9.281,0,0,0-2.0146.21727,10.81108,10.81108,0,0,0-1.76936.54456,1.8859,1.8859,0,0,1-.59911-.74808,2.37164,2.37164,0,0,1-.24478-1.04879,1.74743,1.74743,0,0,1,.34012-1.12946,2.63476,2.63476,0,0,1,1.04833-.72149,8.1597,8.1597,0,0,1,1.8647-.43547A16.18714,16.18714,0,0,1,276.55785,220.20817Zm.21774,10.69961a6.13666,6.13666,0,0,0,1.02082-.09534,2.48541,2.48541,0,0,0,.83059-.25853v-2.17824l-1.96051.16318a3.01761,3.01761,0,0,0-1.2523.32729.88023.88023,0,0,0-.49.81684,1.08372,1.08372,0,0,0,.42218.88468A2.31238,2.31238,0,0,0,276.77559,230.90778Z" fill="#fff"/><path d="M291.068,216.88672a8.78287,8.78287,0,0,1,2.74985.39513,6.41052,6.41052,0,0,1,2.04164,1.07537,4.53121,4.53121,0,0,1,1.27981,1.60618,4.61289,4.61289,0,0,1,.43547,1.98755q0,2.85894-3.2394,5.44469l-3.56669,2.85849h6.53381a4.51406,4.51406,0,0,1,.31307.76275,3.26355,3.26355,0,0,1,.1499,1.00661,1.89591,1.89591,0,0,1-.43547,1.40266,1.57446,1.57446,0,0,1-1.14367.42171h-9.44684a2.899,2.899,0,0,1-.93923-1.04787,3.17338,3.17338,0,0,1-.34012-1.51083,3.007,3.007,0,0,1,.38091-1.56584,3.885,3.885,0,0,1,.84389-1.02128l3.75692-3.21236q.70819-.5982,1.17071-1.07537a9.11909,9.11909,0,0,0,.749-.85718,2.93017,2.93017,0,0,0,.408-.70775,1.77438,1.77438,0,0,0,.12285-.62615,1.36183,1.36183,0,0,0-.66695-1.19821,2.957,2.957,0,0,0-1.64743-.43547,5.24963,5.24963,0,0,0-1.9463.34012,7.7685,7.7685,0,0,0-1.42924.7215,2.71118,2.71118,0,0,1-.7623-.81684,2.14568,2.14568,0,0,1-.29932-1.14321,2.24591,2.24591,0,0,1,1.3339-2.10949A7.82879,7.82879,0,0,1,291.068,216.88672Z" fill="#fff"/><path d="M299.61642,224.91853a2.68884,2.68884,0,0,1-.31308-.78934,4.03824,4.03824,0,0,1-.12238-.98094,1.99593,1.99593,0,0,1,.43546-1.42924,1.55746,1.55746,0,0,1,1.17072-.44922h9.52843q.13614.32728.28557.80309a3.29931,3.29931,0,0,1,.1499.99378,1.953,1.953,0,0,1-.43547,1.40266,1.5235,1.5235,0,0,1-1.14367.44921Zm0,5.41719a2.67854,2.67854,0,0,1-.31308-.78934,4.031,4.031,0,0,1-.12238-.98,1.99446,1.99446,0,0,1,.43546-1.42924,1.554,1.554,0,0,1,1.17072-.44921h9.52843q.13614.32728.28557.80308a3.295,3.295,0,0,1,.1499.99378,1.95054,1.95054,0,0,1-.43547,1.40174,1.52007,1.52007,0,0,1-1.14367.44922Z" fill="#fff"/><path d="M313.09246,216.12489a7.387,7.387,0,0,1,.87139-.17694,7.80793,7.80793,0,0,1,1.2248-.09534,6.4426,6.4426,0,0,1,1.07537.08159,1.82857,1.82857,0,0,1,.80309.32637,1.47713,1.47713,0,0,1,.49.66741,3.10265,3.10265,0,0,1,.16364,1.10287v2.6678a6.59606,6.59606,0,0,1,1.2931-.38138,7.7364,7.7364,0,0,1,1.34765-.1091,6.68961,6.68961,0,0,1,2.47757.463,6.14821,6.14821,0,0,1,2.06869,1.34765,6.26536,6.26536,0,0,1,1.416,2.192A9.17229,9.17229,0,0,1,326.31,230.322a5.88661,5.88661,0,0,1-1.48379,2.192,6.29187,6.29187,0,0,1-2.32768,1.32015,9.72382,9.72382,0,0,1-3.03542.44921,9.61722,9.61722,0,0,1-3.04917-.42171,8.00191,8.00191,0,0,1-2.1237-1.04787,2.56242,2.56242,0,0,1-1.19776-2.17824Zm6.37063,14.51061a2.36222,2.36222,0,0,0,1.9463-.85809,3.97421,3.97421,0,0,0,.69445-2.54495,3.91823,3.91823,0,0,0-.70774-2.55962,2.36141,2.36141,0,0,0-1.906-.84343,3.5674,3.5674,0,0,0-.93923.1091,5.43726,5.43726,0,0,0-.85763.32637V230.2a2.80368,2.80368,0,0,0,.72149.31261A3.82067,3.82067,0,0,0,319.46309,230.6355Z" fill="#fff"/><path d="M334.24553,216.88672a8.78285,8.78285,0,0,1,2.74984.39513,6.41058,6.41058,0,0,1,2.04165,1.07537,4.53132,4.53132,0,0,1,1.27981,1.60618,4.613,4.613,0,0,1,.43546,1.98755q0,2.85894-3.2394,5.44469l-3.56669,2.85849H340.48a4.514,4.514,0,0,1,.31308.76275,3.26356,3.26356,0,0,1,.14989,1.00661,1.89591,1.89591,0,0,1-.43547,1.40266,1.57443,1.57443,0,0,1-1.14366.42171H329.917a2.899,2.899,0,0,1-.93923-1.04787,3.17338,3.17338,0,0,1-.34012-1.51083,3.007,3.007,0,0,1,.38092-1.56584,3.88473,3.88473,0,0,1,.84388-1.02128l3.75692-3.21236q.70821-.5982,1.17072-1.07537a9.11909,9.11909,0,0,0,.749-.85718,2.93017,2.93017,0,0,0,.408-.70775,1.7746,1.7746,0,0,0,.12285-.62615,1.36185,1.36185,0,0,0-.667-1.19821,2.957,2.957,0,0,0-1.64744-.43547,5.24966,5.24966,0,0,0-1.9463.34012,7.76914,7.76914,0,0,0-1.42924.7215,2.711,2.711,0,0,1-.76229-.81684,2.14559,2.14559,0,0,1-.29933-1.14321,2.24593,2.24593,0,0,1,1.3339-2.10949A7.82886,7.82886,0,0,1,334.24553,216.88672Z" fill="#fff"/><path d="M229.215,250.25894a7.387,7.387,0,0,1,.87139-.17694,7.80793,7.80793,0,0,1,1.2248-.09534,6.4426,6.4426,0,0,1,1.07537.08159,1.82857,1.82857,0,0,1,.80309.32637,1.47713,1.47713,0,0,1,.49.66741,3.10265,3.10265,0,0,1,.16364,1.10287v2.66779a6.596,6.596,0,0,1,1.2931-.38137,7.7364,7.7364,0,0,1,1.34765-.1091,6.68961,6.68961,0,0,1,2.47757.463,6.14821,6.14821,0,0,1,2.06869,1.34765,6.26536,6.26536,0,0,1,1.416,2.192,9.17237,9.17237,0,0,1-.01376,6.11118,5.88637,5.88637,0,0,1-1.48379,2.192,6.29182,6.29182,0,0,1-2.32767,1.32015,9.72382,9.72382,0,0,1-3.03542.44921,9.61733,9.61733,0,0,1-3.04918-.42171,8.002,8.002,0,0,1-2.12369-1.04787,2.5624,2.5624,0,0,1-1.19776-2.17824Zm6.37063,14.51061a2.36222,2.36222,0,0,0,1.9463-.85809,3.97421,3.97421,0,0,0,.69445-2.54495,3.91815,3.91815,0,0,0-.70775-2.55962,2.36137,2.36137,0,0,0-1.906-.84343,3.5674,3.5674,0,0,0-.93923.1091,5.43726,5.43726,0,0,0-.85763.32637v5.93516a2.80352,2.80352,0,0,0,.72149.31261A3.82067,3.82067,0,0,0,235.58563,264.76955Z" fill="#fff"/><path d="M250.36806,251.02077a8.78287,8.78287,0,0,1,2.74985.39513,6.41058,6.41058,0,0,1,2.04165,1.07537,4.53143,4.53143,0,0,1,1.27981,1.60618,4.613,4.613,0,0,1,.43546,1.98755q0,2.85894-3.2394,5.44469l-3.56669,2.85849h6.53381a4.514,4.514,0,0,1,.31308.76275,3.26356,3.26356,0,0,1,.14989,1.00661,1.89588,1.89588,0,0,1-.43547,1.40265,1.57441,1.57441,0,0,1-1.14367.42172h-9.44684a2.899,2.899,0,0,1-.93923-1.04787,3.17341,3.17341,0,0,1-.34012-1.51083,3.00687,3.00687,0,0,1,.38092-1.56584,3.88473,3.88473,0,0,1,.84388-1.02128l3.75692-3.21236q.70821-.5982,1.17072-1.07537a9.12035,9.12035,0,0,0,.749-.85718,2.93069,2.93069,0,0,0,.408-.70775,1.77458,1.77458,0,0,0,.12284-.62615,1.36187,1.36187,0,0,0-.66694-1.19822,2.95711,2.95711,0,0,0-1.64744-.43546,5.24966,5.24966,0,0,0-1.9463.34012,7.76914,7.76914,0,0,0-1.42924.7215,2.711,2.711,0,0,1-.76229-.81684,2.14559,2.14559,0,0,1-.29933-1.14321,2.24593,2.24593,0,0,1,1.3339-2.10949A7.82885,7.82885,0,0,1,250.36806,251.02077Z" fill="#fff"/><path d="M267.16556,266.62051a2.6968,2.6968,0,0,1-.80309.17693,9.69322,9.69322,0,0,1-1.12992.06784,3.1528,3.1528,0,0,1-1.68823-.3667,1.749,1.749,0,0,1-.5716-1.56584v-2.99509h-4.11079a2.68017,2.68017,0,0,1-.31308-.78934,4.02536,4.02536,0,0,1-.12239-.98,1.99589,1.99589,0,0,1,.43547-1.42924,1.55743,1.55743,0,0,1,1.17071-.44922h2.94008v-4.57376a7.83266,7.83266,0,0,1,.83059-.17694,6.56591,6.56591,0,0,1,1.10241-.09534,3.07242,3.07242,0,0,1,1.67448.38138,1.80154,1.80154,0,0,1,.58536,1.60617v2.85849h4.0292q.13545.32729.28557.80309a3.30939,3.30939,0,0,1,.14989.99378,1.95447,1.95447,0,0,1-.43546,1.40265,1.52355,1.52355,0,0,1-1.14367.4483h-2.88553Z" fill="#fff"/><path d="M281.40344,257.991a3.8391,3.8391,0,0,0-1.29311.21728,3.0063,3.0063,0,0,0-1.06207.6399,3.13162,3.13162,0,0,0-.7215,1.04787,3.66693,3.66693,0,0,0-.27182,1.4705,3.18175,3.18175,0,0,0,.96627,2.53211,3.45747,3.45747,0,0,0,2.35472.84343,4.67945,4.67945,0,0,0,1.416-.19069,8.57632,8.57632,0,0,0,1.06162-.408,2.82009,2.82009,0,0,1,.81684.83059,2.03706,2.03706,0,0,1,.27228,1.07537,1.904,1.904,0,0,1-1.06208,1.72811,5.90354,5.90354,0,0,1-2.94007.6124,9.05974,9.05974,0,0,1-3.10372-.50331,7.0093,7.0093,0,0,1-2.38177-1.41549,6.25652,6.25652,0,0,1-1.53834-2.192,7.14876,7.14876,0,0,1-.54456-2.831,7.833,7.833,0,0,1,.58536-3.14452,6.07978,6.07978,0,0,1,1.59289-2.21858,6.73977,6.73977,0,0,1,2.32767-1.30731,8.86734,8.86734,0,0,1,2.79019-.43547,5.43681,5.43681,0,0,1,3.02213.70775,2.12091,2.12091,0,0,1,1.06161,1.82437,1.98178,1.98178,0,0,1-.24523.96627,3.37242,3.37242,0,0,1-.57161.77651,8.83065,8.83065,0,0,0-1.11616-.42263A4.73732,4.73732,0,0,0,281.40344,257.991Z" fill="#fff"/><path d="M292.40191,251.02077a8.783,8.783,0,0,1,2.74985.39513,6.41063,6.41063,0,0,1,2.04164,1.07537,4.53121,4.53121,0,0,1,1.27981,1.60618,4.61289,4.61289,0,0,1,.43547,1.98755q0,2.85894-3.23941,5.44469l-3.56668,2.85849h6.53381a4.51489,4.51489,0,0,1,.31307.76275,3.26356,3.26356,0,0,1,.14989,1.00661,1.89588,1.89588,0,0,1-.43546,1.40265,1.57442,1.57442,0,0,1-1.14367.42172h-9.44684a2.8989,2.8989,0,0,1-.93923-1.04787,3.17341,3.17341,0,0,1-.34012-1.51083,3.007,3.007,0,0,1,.38091-1.56584,3.885,3.885,0,0,1,.84389-1.02128l3.75692-3.21236q.70819-.5982,1.17071-1.07537a9.12035,9.12035,0,0,0,.749-.85718,2.93035,2.93035,0,0,0,.408-.70775,1.7746,1.7746,0,0,0,.12285-.62615,1.36186,1.36186,0,0,0-.66695-1.19822,2.95708,2.95708,0,0,0-1.64743-.43546,5.24963,5.24963,0,0,0-1.9463.34012,7.76894,7.76894,0,0,0-1.42925.7215,2.71114,2.71114,0,0,1-.76229-.81684,2.14568,2.14568,0,0,1-.29932-1.14321,2.24591,2.24591,0,0,1,1.3339-2.10949A7.82879,7.82879,0,0,1,292.40191,251.02077Z" fill="#fff"/><path d="M300.95032,259.05258a2.68884,2.68884,0,0,1-.31308-.78934,4.03825,4.03825,0,0,1-.12239-.98094,1.99589,1.99589,0,0,1,.43547-1.42924,1.55745,1.55745,0,0,1,1.17071-.44922h9.52844q.13614.32728.28557.80309a3.29931,3.29931,0,0,1,.14989.99378,1.953,1.953,0,0,1-.43546,1.40265,1.52349,1.52349,0,0,1-1.14367.44922Zm0,5.41719a2.67854,2.67854,0,0,1-.31308-.78934,4.031,4.031,0,0,1-.12239-.98,1.9944,1.9944,0,0,1,.43547-1.42924,1.554,1.554,0,0,1,1.17071-.44922h9.52844q.13614.3273.28557.80309a3.295,3.295,0,0,1,.14989.99378,1.95054,1.95054,0,0,1-.43546,1.40174,1.52009,1.52009,0,0,1-1.14367.44922Z" fill="#fff"/><path d="M319.817,254.34222a11.16585,11.16585,0,0,1,2.68155.29979,5.99984,5.99984,0,0,1,2.06915.91218,4.1145,4.1145,0,0,1,1.32014,1.55117,4.96987,4.96987,0,0,1,.463,2.2195v6.09835a1.69074,1.69074,0,0,1-.39467,1.157,3.97109,3.97109,0,0,1-.93923.77559,9.73233,9.73233,0,0,1-4.98218,1.06161,11.37508,11.37508,0,0,1-2.6-.27228,6.13386,6.13386,0,0,1-1.98756-.81684,3.736,3.736,0,0,1-1.27935-1.388,4.11174,4.11174,0,0,1-.44921-1.96005,3.68739,3.68739,0,0,1,1.11616-2.886,6.02159,6.02159,0,0,1,3.4576-1.25231l3.56623-.38138v-.19068a1.1672,1.1672,0,0,0-.694-1.12946,4.68061,4.68061,0,0,0-2.0013-.34012,9.28088,9.28088,0,0,0-2.0146.21727,10.81151,10.81151,0,0,0-1.76937.54456,1.886,1.886,0,0,1-.59911-.74808,2.37176,2.37176,0,0,1-.24477-1.04879,1.74743,1.74743,0,0,1,.34012-1.12946,2.63479,2.63479,0,0,1,1.04832-.72149,8.15992,8.15992,0,0,1,1.86471-.43547A16.18689,16.18689,0,0,1,319.817,254.34222Zm.21773,10.69961a6.13668,6.13668,0,0,0,1.02083-.09534,2.48541,2.48541,0,0,0,.83059-.25853v-2.17824l-1.96051.16318a3.0177,3.0177,0,0,0-1.25231.32729.88022.88022,0,0,0-.49.81684,1.08371,1.08371,0,0,0,.42217.88468A2.31242,2.31242,0,0,0,320.03469,265.04183Z" fill="#fff"/><path d="M334.32666,251.02077a8.783,8.783,0,0,1,2.74985.39513,6.41063,6.41063,0,0,1,2.04164,1.07537,4.53121,4.53121,0,0,1,1.27981,1.60618,4.61289,4.61289,0,0,1,.43547,1.98755q0,2.85894-3.23941,5.44469l-3.56668,2.85849h6.53381a4.51489,4.51489,0,0,1,.31307.76275,3.26356,3.26356,0,0,1,.14989,1.00661,1.89588,1.89588,0,0,1-.43546,1.40265,1.57442,1.57442,0,0,1-1.14367.42172h-9.44684a2.8989,2.8989,0,0,1-.93923-1.04787,3.17341,3.17341,0,0,1-.34012-1.51083,3.007,3.007,0,0,1,.38091-1.56584,3.885,3.885,0,0,1,.84389-1.02128l3.75692-3.21236q.70819-.5982,1.17071-1.07537a9.12035,9.12035,0,0,0,.749-.85718,2.93035,2.93035,0,0,0,.408-.70775,1.7746,1.7746,0,0,0,.12285-.62615,1.36188,1.36188,0,0,0-.66695-1.19822,2.95708,2.95708,0,0,0-1.64743-.43546,5.24963,5.24963,0,0,0-1.9463.34012,7.76894,7.76894,0,0,0-1.42925.7215,2.71114,2.71114,0,0,1-.76229-.81684,2.14568,2.14568,0,0,1-.29932-1.14321,2.24591,2.24591,0,0,1,1.3339-2.10949A7.82879,7.82879,0,0,1,334.32666,251.02077Z" fill="#fff"/><circle cx="513.19285" cy="157.58958" r="26.31743" fill="#ffba55"/><path d="M513.19246,184.37652a26.78711,26.78711,0,1,1,26.78711-26.78711A26.81739,26.81739,0,0,1,513.19246,184.37652Zm0-52.63476a25.84766,25.84766,0,1,0,25.84766,25.84765A25.87631,25.87631,0,0,0,513.19246,131.74176Z" fill="#d77f4a"/><path d="M513.19246,159.93707a.47055.47055,0,0,1-.46973-.46973v-16.9707a.46973.46973,0,0,1,.93946,0v16.9707A.47055.47055,0,0,1,513.19246,159.93707Z" fill="#d77f4a"/><path d="M527.794,163.44781a.47359.47359,0,0,1-.21-.0498l-17.6084-8.83008a.46949.46949,0,1,1,.41993-.83984l17.60839,8.83007a.46965.46965,0,0,1-.21.88965Z" fill="#d77f4a"/><rect x="167.78719" y="208.57171" width="10.73878" height="29.60907" fill="#ffba55"/><path d="M509.38783,229.72043H546.603a0,0,0,0,1,0,0v5.90847a0,0,0,0,1,0,0h-37.2152a2.54234,2.54234,0,0,1-2.54234-2.54234v-.82379a2.54234,2.54234,0,0,1,2.54234-2.54234Z" fill="#fff"/><path d="M547.76687,235.78014a.53533.53533,0,0,1-.53533.53533H508.60626c-1.47476,0-2.67435-1.61977-2.67435-3.6111,0-1.99084,1.19959-3.61062,2.67435-3.61062h38.62528a.53534.53534,0,0,1,.53533.53534v.42137a.53533.53533,0,0,1-.53533.53533H508.60626c-.86543,0-1.56936.9505-1.56936,2.11858,0,1.16857.70393,2.11907,1.56936,2.11907h38.62528a.53533.53533,0,0,1,.53533.53533Z" fill="#f65b2b"/><path d="M503.58154,222.49871h37.21521a0,0,0,0,1,0,0v5.90847a0,0,0,0,1,0,0h-37.2152a2.54234,2.54234,0,0,1-2.54234-2.54234v-.82379A2.54234,2.54234,0,0,1,503.58154,222.49871Z" fill="#fff"/><path d="M541.96059,228.55842a.53533.53533,0,0,1-.53534.53533H502.8c-1.47476,0-2.67435-1.61977-2.67435-3.6111,0-1.99084,1.19959-3.61061,2.67435-3.61061h38.62527a.53533.53533,0,0,1,.53534.53533v.42137a.53533.53533,0,0,1-.53534.53533H502.8c-.86543,0-1.56936.9505-1.56936,2.11858,0,1.16857.70393,2.11907,1.56936,2.11907h38.62527a.53533.53533,0,0,1,.53534.53533Z" fill="#ffba55"/><path d="M515.46677,215.277H552.682a0,0,0,0,1,0,0v5.90847a0,0,0,0,1,0,0h-37.2152a2.54234,2.54234,0,0,1-2.54234-2.54234v-.82379A2.54234,2.54234,0,0,1,515.46677,215.277Z" fill="#fff"/><path d="M553.84581,221.3367a.53534.53534,0,0,1-.53533.53534H514.6852c-1.47476,0-2.67435-1.61978-2.67435-3.61111,0-1.99084,1.19959-3.61061,2.67435-3.61061h38.62528a.53533.53533,0,0,1,.53533.53533v.42137a.53533.53533,0,0,1-.53533.53533H514.6852c-.86543,0-1.56936.9505-1.56936,2.11858,0,1.16857.70393,2.11907,1.56936,2.11907h38.62528a.53533.53533,0,0,1,.53533.53533Z" fill="#f65b2b"/><path d="M581.19674,421.21968l0,39.79251h-6.25685l0-39.7925a.65035.65035,0,0,1,.65034-.65035h4.95617A.65034.65034,0,0,1,581.19674,421.21968Z" fill="#f65b2b"/><rect x="574.93953" y="457.55133" width="6.25684" height="0.75586" fill="#fff"/><rect x="574.93953" y="454.52887" width="6.25684" height="0.75586" fill="#fff"/><rect x="574.93953" y="427.32477" width="6.25684" height="0.75586" fill="#fff"/><rect x="574.93953" y="424.3023" width="6.25684" height="0.75586" fill="#fff"/><path d="M560.26138,421.21968l0,39.79251h6.25685l0-39.7925a.65035.65035,0,0,0-.65034-.65035h-4.95617A.65034.65034,0,0,0,560.26138,421.21968Z" fill="#ffba55"/><rect x="560.2618" y="457.55133" width="6.25684" height="0.75586" fill="#fff"/><rect x="560.2618" y="454.52887" width="6.25684" height="0.75586" fill="#fff"/><rect x="560.2618" y="427.32477" width="6.25684" height="0.75586" fill="#fff"/><rect x="560.2618" y="424.3023" width="6.25684" height="0.75586" fill="#fff"/><path d="M560.269,461.01219V423.03326a.65034.65034,0,0,0-.65034-.65034h-7.13247a.65034.65034,0,0,0-.65034.65034v37.97893Z" fill="#f65b2b"/><rect x="551.83602" y="456.25934" width="8.43262" height="0.75586" fill="#fff"/><rect x="547.02981" y="430.86141" width="18.04513" height="5.44074" transform="translate(989.63415 -122.47059) rotate(90)" fill="#fff"/><path d="M552.06477,437.481h37.97892a0,0,0,0,1,0,0v8.43315a0,0,0,0,1,0,0H552.06477a.65034.65034,0,0,1-.65034-.65034v-7.13246a.65034.65034,0,0,1,.65034-.65034Z" transform="translate(1012.42661 -129.03151) rotate(90)" fill="#7ca1b1"/><rect x="566.51277" y="456.25934" width="8.43262" height="0.75586" fill="#fff"/><rect x="561.7065" y="430.86141" width="18.04513" height="5.44074" transform="translate(1004.31084 -137.14728) rotate(90)" fill="#fff"/><path d="M457.513,454.14414h37.2152a0,0,0,0,1,0,0v5.90847a0,0,0,0,1,0,0H457.513a2.54234,2.54234,0,0,1-2.54234-2.54234v-.82379A2.54234,2.54234,0,0,1,457.513,454.14414Z" transform="translate(949.69888 914.19674) rotate(180)" fill="#fff"/><path d="M453.80683,460.20385a.53534.53534,0,0,0,.53533.53533h38.62528c1.47476,0,2.67435-1.61977,2.67435-3.6111,0-1.99084-1.19959-3.61062-2.67435-3.61062H454.34216a.53534.53534,0,0,0-.53533.53533v.42138a.53534.53534,0,0,0,.53533.53533h38.62528c.86543,0,1.56936.95049,1.56936,2.11858,0,1.16857-.70393,2.11906-1.56936,2.11906H454.34216a.53534.53534,0,0,0-.53533.53533Z" fill="#f65b2b"/><path d="M463.31929,446.92242h37.2152a0,0,0,0,1,0,0v5.90847a0,0,0,0,1,0,0H463.31929a2.54234,2.54234,0,0,1-2.54234-2.54234v-.82379A2.54234,2.54234,0,0,1,463.31929,446.92242Z" transform="translate(961.31144 899.75331) rotate(180)" fill="#fff"/><path d="M459.61311,452.98213a.53534.53534,0,0,0,.53533.53533h38.62528c1.47476,0,2.67435-1.61977,2.67435-3.6111,0-1.99084-1.19959-3.61062-2.67435-3.61062H460.14844a.53534.53534,0,0,0-.53533.53533v.42138a.53534.53534,0,0,0,.53533.53533h38.62528c.86543,0,1.56936.95049,1.56936,2.11858,0,1.16857-.70393,2.11906-1.56936,2.11906H460.14844a.53534.53534,0,0,0-.53533.53533Z" fill="#ffba55"/><path d="M463.31929,439.7007h37.2152a0,0,0,0,1,0,0v5.90847a0,0,0,0,1,0,0H463.31929a2.54234,2.54234,0,0,1-2.54234-2.54234V442.243a2.54234,2.54234,0,0,1,2.54234-2.54234Z" transform="translate(961.31144 885.30987) rotate(180)" fill="#fff"/><path d="M459.61311,445.76041a.53534.53534,0,0,0,.53533.53533h38.62528c1.47476,0,2.67435-1.61977,2.67435-3.6111,0-1.99084-1.19959-3.61062-2.67435-3.61062H460.14844a.53534.53534,0,0,0-.53533.53533v.42138a.53534.53534,0,0,0,.53533.53533h38.62528c.86543,0,1.56936.95049,1.56936,2.11858,0,1.16857-.70393,2.11906-1.56936,2.11906H460.14844a.53534.53534,0,0,0-.53533.53533Z" fill="#f65b2b"/><path d="M476.01784,415.48694h39.7925a0,0,0,0,1,0,0v6.25685a0,0,0,0,1,0,0h-39.7925a.65034.65034,0,0,1-.65034-.65034v-4.95617a.65034.65034,0,0,1,.65034-.65034Z" transform="translate(977.28616 -15.91308) rotate(97.75988)" fill="#7ca1b1"/><rect x="497.52546" y="398.50511" width="0.75491" height="6.25747" transform="translate(32.73119 840.76062) rotate(-82.24168)" fill="#fff"/><rect x="497.11725" y="401.50023" width="0.75491" height="6.25747" transform="translate(29.41039 842.94695) rotate(-82.24168)" fill="#fff"/><rect x="493.4444" y="428.45475" width="0.75491" height="6.25761" transform="translate(-0.54115 862.54714) rotate(-82.23282)" fill="#fff"/><rect x="493.0362" y="431.44945" width="0.75491" height="6.25747" transform="translate(-3.79482 864.80948) rotate(-82.24168)" fill="#fff"/><path d="M481.33721,399.28152l0,39.7925h-6.25685l0-39.79251a.65034.65034,0,0,1,.65034-.65034h4.95617A.65035.65035,0,0,1,481.33721,399.28152Z" fill="#f65b2b"/><rect x="475.08016" y="435.61285" width="6.25684" height="0.75586" fill="#fff"/><rect x="475.08016" y="432.59039" width="6.25684" height="0.75586" fill="#fff"/><rect x="475.08016" y="405.38629" width="6.25684" height="0.75586" fill="#fff"/><rect x="475.08016" y="402.36383" width="6.25684" height="0.75586" fill="#fff"/><path d="M481.32964,439.074V401.0951a.65035.65035,0,0,1,.65034-.65035h7.13247a.65035.65035,0,0,1,.65034.65035V439.074Z" fill="#ffba55"/><rect x="481.32918" y="434.32086" width="8.43359" height="0.75586" fill="#fff"/><rect x="476.52365" y="408.92324" width="18.04513" height="5.44074" transform="translate(897.18983 -73.9026) rotate(90)" fill="#fff"/><path d="M460.40185,399.28152l0,39.7925h6.25685l0-39.79251a.65034.65034,0,0,0-.65034-.65034h-4.95617A.65035.65035,0,0,0,460.40185,399.28152Z" fill="#ffba55"/><rect x="460.40145" y="435.61285" width="6.25684" height="0.75586" fill="#fff"/><rect x="460.40145" y="432.59039" width="6.25684" height="0.75586" fill="#fff"/><rect x="460.40145" y="405.38629" width="6.25684" height="0.75586" fill="#fff"/><rect x="460.40145" y="402.36383" width="6.25684" height="0.75586" fill="#fff"/><path d="M452.20524,415.54281h37.97892a0,0,0,0,1,0,0V423.976a0,0,0,0,1,0,0H452.20524a.65034.65034,0,0,1-.65034-.65034v-7.13246a.65034.65034,0,0,1,.65034-.65034Z" transform="translate(890.62892 -51.11014) rotate(90)" fill="#7ca1b1"/><rect x="466.6534" y="434.32086" width="8.43262" height="0.75586" fill="#fff"/><rect x="461.84697" y="408.92324" width="18.04513" height="5.44074" transform="translate(882.51314 -59.22592) rotate(90)" fill="#fff"/><path d="M140.536,445.86154c0,.097,1.0101-.14049.99826-.03164,0,0-9.93944,16.29577-11.03033,16.29577a2.74874,2.74874,0,0,1-.31473-.02425,2.2246,2.2246,0,0,1-1.89013-2.50805L136.053,445.8299Z" fill="#935b50"/><path d="M191.23474,445.86154c0,.097-1.0101-.14049-.99827-.03164,0,0,9.93944,16.29577,11.03034,16.29577a2.7484,2.7484,0,0,0,.31472-.02425,2.22458,2.22458,0,0,0,1.89013-2.50805l-7.75385-13.76347Z" fill="#935b50"/><path d="M206.75621,409.23325H124.69492V374.4286a2.42315,2.42315,0,0,1,2.42315-2.42315h77.215a2.42315,2.42315,0,0,1,2.42315,2.42315Z" fill="#d6694b"/><path d="M136.05319,446.45992h-8.92931a2.42315,2.42315,0,0,1-2.42316-2.42315v-34.8086H206.7608v34.8086a2.42315,2.42315,0,0,1-2.42316,2.42315h-6.1548" fill="#d6694b"/><rect x="128.26383" y="375.83964" width="74.92348" height="29.55943" rx="2.42315" fill="#e19974"/><ellipse cx="165.72557" cy="390.61935" rx="4.12577" ry="4.08451" fill="#935b50"/><path d="M168.51333,392.816s18.0676,16.77543,23.6345,16.158c0,0-25.26952,16.21744-30.16227,30.86433l-18.53907-20.404S160.74379,404.84787,168.51333,392.816Z" fill="#ffba55"/><path d="M161.65025,391.44462s18.0676,16.77543,23.63451,16.158c0,0-25.26953,16.21744-30.16228,30.86433l-18.53907-20.404S153.88071,403.47645,161.65025,391.44462Z" fill="#f65b2b"/><path d="M162.14026,395.52861s18.06759,16.77543,23.6345,16.158c0,0-25.26953,16.21744-30.16228,30.86433l-18.53907-20.404S154.37071,407.56044,162.14026,395.52861Z" fill="#fff"/><rect x="128.26383" y="413.06744" width="74.92348" height="29.55943" rx="2.42315" fill="#e19974"/><ellipse cx="165.72557" cy="427.84716" rx="4.12577" ry="4.08451" fill="#935b50"/><rect x="163.03251" y="311.77655" width="1.51131" height="50.68531" transform="translate(-119.0034 91.14187) rotate(-23.07002)" fill="#935b50"/><circle cx="165.96647" cy="336.97568" r="20.41453" fill="#c0d6f2"/><path d="M182.75862,325.37059a20.40007,20.40007,0,0,1,3.15231,15.959c-.01291.00738-.02508.01672-.03817.02373a2.3747,2.3747,0,0,1-2.34885,0,6.13872,6.13872,0,0,1-.729-1.61989c-.2938-.76818-.35557-1.01877-.648-1.2149-.37216-.24973-.68477-.12059-.89092-.405-.18519-.25551-.00731-.4624-.081-.891a2.44677,2.44677,0,0,0-1.05294-1.37685c-.696-.56043-1.05454-.50149-1.179-.88324-.07806-.23953.00946-.42724.369-1.22265a12.4983,12.4983,0,0,0,.729-1.70089,3.56983,3.56983,0,0,0-.40492-2.02487,31.54323,31.54323,0,0,1-.729-3.32078c-.82005-3.11205-2.24331-4.3098-1.94386-4.61669C177.33233,321.69842,180.158,322.8371,182.75862,325.37059Z" fill="#a6b862"/><path d="M148.47839,326.4405c1.41054-1.4516,2.7566-2.25672,3.13362-2.0151.16417.10522.05667.35249.32392.97193.25581.5927.87887,1.582,1.61995,1.61988.332.017.48544-.1673,1.53887-1.05294,1.56887-1.31889,1.83839-1.42277,2.10588-1.37692.68447.1174,1.229,1.19339.97193,1.61995-.25224.41845-1.162.0225-1.45792.48594a1.18041,1.18041,0,0,0,.486,1.37691,1.8864,1.8864,0,0,0,1.7009-.081,3.22718,3.22718,0,0,0,1.70089-1.29591c.433-.7144.30161-1.27458.648-1.37692.31377-.09269.75779.26786.97193.64795.36971.65638-.0799,1.13365.243,1.62.41586.62632,1.46167.28642,1.61988.7289.14672.41015-.6131,1.08994-1.2149,1.45793-.74519.45557-.99854.28046-1.94386.64795-1.414.54968-1.31914,1.12492-2.59182,1.53888-1.10549.35956-1.47384.02213-1.94392.486-.38606.381-.44635.98293-.56694,2.18683-.09583.95644.01487,1.185.081,1.2959a1.53891,1.53891,0,0,0,1.61989.648c.32293-.08568.53929-.30007.97193-.7289.496-.49165.49645-.67943.80991-.81.48237-.2008.7109.14807,1.13395,0,.56271-.197.7873-1.03438,1.05295-2.02487.2681-.99977.21-1.41853.56694-1.61988.29183-.16467.4729.035,1.13395,0a5.08782,5.08782,0,0,0,1.45787-.405A12.746,12.746,0,0,1,166.434,330.5a5.32973,5.32973,0,0,1,2.59188.324,5.73392,5.73392,0,0,1,2.75377,1.61989,4.114,4.114,0,0,1,1.215,3.07781,3.75,3.75,0,0,1-1.215,2.34879c-.93788.81937-1.56628.43836-2.42986,1.215a3.89687,3.89687,0,0,0-1.13388,2.59181c-.023.42073.01579,1.00377,1.2959,3.64476.99584,2.05456,1.25645,2.28769,1.37692,3.15882.13473.97415.085,2.6799-.81,3.15877-.49559.26515-.73763-.12023-2.67283-.324a11.63633,11.63633,0,0,0-2.18683-.081c-1.09811.07511-1.23112.26755-1.86291.162a3.93958,3.93958,0,0,1-1.86285-.97193c-.8023-.65466-.72553-.95018-1.53894-1.61989a7.80229,7.80229,0,0,0-1.61983-.97193c-1.18349-.59946-1.49954-.5718-2.51086-1.13395-.88238-.49042-1.56334-.87931-1.53888-1.37692a1.09305,1.09305,0,0,1,.7289-.80991c.60782-.23584.94059.22,1.45793,0a1.46748,1.46748,0,0,0,.729-1.45793c-.04511-.46141-.328-1.04987-.64795-1.05294-.40523-.00387-.38384.93634-1.13395,1.37692a2.15648,2.15648,0,0,1-2.10588-.162c-.55115-.33983-1.19456-1.06744-1.05288-1.70089.108-.48336.58845-.53351.729-1.134.0925-.39553.017-.94206-.243-1.053-.48876-.20848-1.51294,1.17262-2.02487,1.86292a5.62374,5.62374,0,0,0-1.37692,2.51081c-.13915.9849.21291,1.6409-.243,2.10588a1.2455,1.2455,0,0,1-.97193.324,1.31482,1.31482,0,0,1-.48489-.151,20.426,20.426,0,0,1,.83407-19.54053Z" fill="#a6b862"/><path d="M165.02059,363.37262a26.76156,26.76156,0,0,1-10.36524-51.4502,1.38454,1.38454,0,1,1,1.06836,2.55469,23.99266,23.99266,0,0,0,18.51953,44.26758,1.38454,1.38454,0,1,1,1.06836,2.55468A26.608,26.608,0,0,1,165.02059,363.37262Z" fill="#935b50"/><path d="M147.10485,368.707h16.09228v-6.20935a1.76222,1.76222,0,0,1,1.7623-1.76229c.97334,0,4.27986.78895,4.27986,1.76229V368.707H182.814a1.7623,1.7623,0,1,1,0,3.52459H147.10485a1.7623,1.7623,0,0,1,0-3.52459Z" fill="#935b50"/><path d="M586.69246,462.356H117.3077a1,1,0,0,1,0-2H586.69246a1,1,0,0,1,0,2Z" fill="#935b50"/><path d="M292.67293,152.399a2.62032,2.62032,0,0,1-.91211.47657,4.27648,4.27648,0,0,1-1.293.17675,4.55932,4.55932,0,0,1-1.62012-.24511,1.30105,1.30105,0,0,1-.83007-.84375q-.76318-2.395-1.25293-3.87891-.48927-1.48389-.76172-2.60058h-.13672q-.08056,1.60692-.12207,2.92675-.041,1.32129-.05469,2.57325-.01318,1.25244-.05469,2.53125-.03954,1.28026-.12207,2.83105a4.813,4.813,0,0,1-.92578.23145,6.94307,6.94307,0,0,1-1.14355.0957,3.78463,3.78463,0,0,1-1.86426-.38086,1.45834,1.45834,0,0,1-.667-1.38867l.78906-13.88477a2.61573,2.61573,0,0,1,.95313-.76172,4.3071,4.3071,0,0,1,2.06933-.4082,4.72052,4.72052,0,0,1,2.25878.44922,2.6528,2.6528,0,0,1,1.19825,1.45605q.24464.65333.53125,1.49707.28564.84522.57129,1.74219.28564.89942.5586,1.7832.271.88623.48925,1.59278h.13672q.65332-2.28663,1.30664-4.42383t1.19727-3.58008a4.39139,4.39139,0,0,1,1.04883-.36719,6.28671,6.28671,0,0,1,1.42871-.14941,5.17733,5.17733,0,0,1,2.17871.39453,1.56532,1.56532,0,0,1,.97948,1.12988q.10842.54492.23146,1.67383.123,1.13087.25878,2.5459.13623,1.415.27247,2.99414t.25878,3.03613q.12159,1.45606.20411,2.668.08056,1.21143.10839,1.86426a3.57225,3.57225,0,0,1-.96582.39551,5.67364,5.67364,0,0,1-1.29394.12207,3.878,3.878,0,0,1-1.74219-.35352,1.49728,1.49728,0,0,1-.76172-1.38867q-.16406-2.96777-.2041-5.33594-.041-2.36865-.123-3.97461h-.13574q-.27246,1.06056-.79,2.668Q293.4078,149.89411,292.67293,152.399Z" fill="#fff"/><path d="M306.61043,140.44781a5.75095,5.75095,0,0,1,1.40234-.51758,7.4771,7.4771,0,0,1,1.89161-.24511,6.801,6.801,0,0,1,2.41015.3955,2.09834,2.09834,0,0,1,1.34766,1.23829q.48925,1.4165,1.06152,3.29394.57129,1.87939,1.14356,3.87988.57129,2.001,1.11621,3.94727.54345,1.94678.95215,3.44434a2.24683,2.24683,0,0,1-.9795.6123,4.65726,4.65726,0,0,1-1.55175.23145,4.77032,4.77032,0,0,1-1.10254-.10938,1.95072,1.95072,0,0,1-.73536-.32617,1.61414,1.61414,0,0,1-.46289-.57227,4.83847,4.83847,0,0,1-.3125-.8164l-.49023-1.87891h-4.92773q-.21827.81738-.43555,1.68848-.21826.87158-.43555,1.6875a6.94848,6.94848,0,0,1-.80371.23144,4.69991,4.69991,0,0,1-1.02051.09571,3.56223,3.56223,0,0,1-2.05566-.47657,1.53319,1.53319,0,0,1-.667-1.32031,2.748,2.748,0,0,1,.10937-.76269c.07227-.25391.15332-.55274.24512-.89844q.189-.73389.53027-1.82422.33984-1.08839.749-2.35449.40869-1.26562.87109-2.59961.46288-1.33447.87109-2.51856.40869-1.18359.749-2.10937Q306.42,140.938,306.61043,140.44781Zm3.26758,3.51172q-.38232,1.144-.8584,2.5459t-.85742,2.84473h3.376q-.38085-1.4707-.77539-2.87207-.39551-1.40186-.72168-2.51856Z" fill="#fff"/><path d="M318.4532,143.7691a3.5413,3.5413,0,0,1-.35351-.8164,3.61049,3.61049,0,0,1-.16309-1.08887,2.05993,2.05993,0,0,1,.47656-1.52539,1.70587,1.70587,0,0,1,1.23829-.46289h11.87011a3.52737,3.52737,0,0,1,.35352.81738,3.58034,3.58034,0,0,1,.16308,1.08887,2.05993,2.05993,0,0,1-.47558,1.52441,1.70578,1.70578,0,0,1-1.23926.46289h-3.02148v12.57715a7.58146,7.58146,0,0,1-.93946.16406,9.94609,9.94609,0,0,1-1.26562.08106,5.67065,5.67065,0,0,1-1.10254-.09473,1.94721,1.94721,0,0,1-.80371-.34082,1.47009,1.47009,0,0,1-.49024-.68066,3.32671,3.32671,0,0,1-.16308-1.14258V143.7691Z" fill="#fff"/><path d="M349.10848,156.34625a7.58146,7.58146,0,0,1-.93946.16406,9.94609,9.94609,0,0,1-1.26562.08106,5.67065,5.67065,0,0,1-1.10254-.09473,1.94709,1.94709,0,0,1-.80371-.34082,1.47016,1.47016,0,0,1-.49024-.68066,3.32671,3.32671,0,0,1-.16308-1.14258v-4.24707h-5.22656v6.26074a7.58146,7.58146,0,0,1-.93946.16406,9.9462,9.9462,0,0,1-1.26562.08106,5.66358,5.66358,0,0,1-1.10254-.09473,1.94721,1.94721,0,0,1-.80371-.34082,1.47009,1.47009,0,0,1-.49024-.68066,3.32647,3.32647,0,0,1-.16308-1.14258v-14.375c.19922-.03613.51758-.08594.95312-.14942a8.688,8.688,0,0,1,1.252-.0957,5.67284,5.67284,0,0,1,1.10253.0957,1.965,1.965,0,0,1,.80372.33985,1.46658,1.46658,0,0,1,.48925.68066,3.31014,3.31014,0,0,1,.16407,1.14356v4.35547h5.22656v-6.37012c.19922-.03613.51758-.08594.95312-.14942a8.68773,8.68773,0,0,1,1.252-.0957,5.6659,5.6659,0,0,1,1.10254.0957,1.965,1.965,0,0,1,.80371.33985,1.475,1.475,0,0,1,.49023.68066,3.33639,3.33639,0,0,1,.16309,1.14356Z" fill="#fff"/><path d="M357.33016,149.8941q-1.19824-.40722-2.17774-.83008a6.679,6.679,0,0,1-1.68847-1.0205,4.24462,4.24462,0,0,1-1.10254-1.42969,4.7068,4.7068,0,0,1-.39453-2.02832,4.45694,4.45694,0,0,1,1.7832-3.70215,7.95664,7.95664,0,0,1,4.99609-1.38867,13.68747,13.68747,0,0,1,2.17774.16308,6.53436,6.53436,0,0,1,1.72851.50391,3.02826,3.02826,0,0,1,1.12988.87109,1.97566,1.97566,0,0,1,.40821,1.23926,2.1745,2.1745,0,0,1-.32617,1.21094,3.38284,3.38284,0,0,1-.79.85742,6.18852,6.18852,0,0,0-1.60645-.667,8.05716,8.05716,0,0,0-2.20508-.28516,3.64257,3.64257,0,0,0-1.79687.33985.99265.99265,0,0,0-.57129.85742.79226.79226,0,0,0,.35352.667,3.64808,3.64808,0,0,0,1.0625.47656l1.44238.46289a10.44827,10.44827,0,0,1,3.93359,2.083,4.44934,4.44934,0,0,1,1.375,3.44336,4.52908,4.52908,0,0,1-1.82422,3.74316,8.56753,8.56753,0,0,1-5.3623,1.42969,12.52225,12.52225,0,0,1-2.32813-.2041,7.37457,7.37457,0,0,1-1.8789-.59863,3.477,3.477,0,0,1-1.252-.98047,2.14863,2.14863,0,0,1-.44921-1.34766,2.04211,2.04211,0,0,1,.46289-1.34765,3.53436,3.53436,0,0,1,1.00781-.85743,7.37266,7.37266,0,0,0,1.86426,1.03418,6.4883,6.4883,0,0,0,2.40918.43555,3.23211,3.23211,0,0,0,1.8789-.4082,1.17724,1.17724,0,0,0,.54395-.95215.93349.93349,0,0,0-.43555-.83106,5.6385,5.6385,0,0,0-1.22461-.55761Z" fill="#fff"/><path d="M379.09091,436.88821l-2.00254,8.32595s-10.9714,8.71635-25.02152,11.05821c0,0-4.29307,1.97132-4.29307,5.08339h42.324v-16.1416l1.86647-8.326Z" fill="#f9977a"/><path d="M390.10089,445.211v16.14h-42.33c0-3.11,4.29993-5.08007,4.29993-5.08007,14.05005-2.33985,25.02-11.05994,25.02-11.05994S383.83087,452.69107,390.10089,445.211Z" fill="#d6694b"/><polygon points="392.656 277.133 373.691 436.888 392.656 436.888 410.741 353.628 422.831 436.888 442.092 436.888 442.092 277.133 392.656 277.133" fill="#8b9d36"/><path d="M412.23608,216.40521c-7.67048-4.44642.84026-14.1507.84026-14.1507l.15906-.50447a.64288.64288,0,0,0-.59581-.863c-1.73488.06841-5.27209-.18685-3.77825-3.62353a3.33894,3.33894,0,0,0-.68068-2.7514.94039.94039,0,0,1,.1958-1.36806,8.85046,8.85046,0,0,0,2.72243-2.49692.62829.62829,0,0,0-.51676-.96493l-3.34691.13124a.49621.49621,0,0,1-.47627-.62361l.10151-.4578a.54016.54016,0,0,0-.38577-.65407l-1.12479-.25144a1.30506,1.30506,0,0,1-.80809-1.86607l2.19-4.42844a3.82385,3.82385,0,0,0,.3005-2.51352c-.54982-2.48634-2.39392-1.9-.758-7.31082,0,0,6.05133-6.37872,17.30129,2.69613,0,0-.48211-.582,4.76409,4.90752,0,0,2.056,2.04914.53812,8.37428,0,0,2.10527,12.68022-.03143,16.75061C428.84638,204.43623,419.90657,220.85162,412.23608,216.40521Z" fill="#f9977a"/><path d="M428.01054,189.64489s-3.04013,23.94706-15.38331,12.9433h0c.27208-.21415.44911-.33368.44911-.33368l.15906-.50447a.64289.64289,0,0,0-.59577-.863c-.11187.00441-.23174.00731-.35675.00821l-.0468-.23C424.91084,202.45292,428.01054,189.64489,428.01054,189.64489Z" fill="#dd765e"/><path d="M413.93332,179.73621a.45927.45927,0,0,0,.49285-.20634.523.523,0,0,0-.11431-.69813,17.07992,17.07992,0,0,0-7.11766-2.87932.50384.50384,0,0,0-.12627.99729,16.52,16.52,0,0,1,6.7048,2.71116A.44838.44838,0,0,0,413.93332,179.73621Z"/><path d="M411.43526,180.65808a8.75618,8.75618,0,0,1-1.85315-.32514l-.82861-.24316c-.28516-.0918-.57428-.16595-.93238-.30988a2.11217,2.11217,0,0,1,2.0221-.41168A2.39609,2.39609,0,0,1,411.43526,180.65808Z" fill="#350500"/><ellipse cx="409.08094" cy="180.83261" rx="1.10427" ry="0.59153" transform="translate(146.91271 543.20737) rotate(-77.96292)" fill="#050505"/><path d="M428.18884,182.58774a5.84344,5.84344,0,0,0-2.06655-.709,2.14346,2.14346,0,0,0-1.00586.16258,4.04882,4.04882,0,0,0-.95049.60762,2.15776,2.15776,0,0,1,.78929-.95763,1.92586,1.92586,0,0,1,1.20326-.31366,2.65212,2.65212,0,0,1,1.14961.39006A2.84234,2.84234,0,0,1,428.18884,182.58774Z" fill="#dd765e"/><path d="M427.346,186.38887a3.16085,3.16085,0,0,1-.895-.91569,4.135,4.135,0,0,1-.54706-1.21293,5.19726,5.19726,0,0,1-.12382-.669,4.08425,4.08425,0,0,1,.00477-.68231,3.33011,3.33011,0,0,1,.36608-1.2814,11.05682,11.05682,0,0,0-.00023,1.28139,5.73231,5.73231,0,0,0,.20394,1.2078A9.12581,9.12581,0,0,0,427.346,186.38887Z" fill="#dd765e"/><path d="M431.50651,194.10379c3.02151-.41013,4.43989-5.45552,5.81883-10.36061a26.22612,26.22612,0,0,0,1.14882-11.19c-.37368-2.82944-.73556-5.56954-2.78771-8.15475-2.85121-3.59181-7.06933-4.49622-10.43362-5.21757-3.76579-.80743-6.77594-1.45284-9.79571-.03362-3.20077,1.50429-3.97478,1.127-6.11715,3.59846-.73849.85193-3.38164.892-4.91328,1.75021-.30537.1711-2.0767,1.16355-2.01606,2.17725.02615.4371.48248,4.07851,6.55989,5.66932,3.5082.9183,4.68994.55454,6.30687,1.55359,3.56138,2.20046,5.82228,1.008,6.635,1.26148.97822.305-.16819,1.62681-.97472,3.93919a26.80274,26.80274,0,0,0-1.23475,5.38228c-.40133,2.86984-.05154,3.5735-.74245,5.58305a6.73361,6.73361,0,0,1-1.80764,3.18666c-1.282,1.13123-2.83261,1.30989-4.95338,1.52634-3.6823.37581-3.8331-.78551-4.3483.05276-.5155.83873-.15232,3.93773.65977,4.76779,2.24334,2.293,5.23335,1.312,7.25038,1.26592,2.72388-.06225,8.80237-2.29037,9.15455-5.84862.18924-1.912-.63913-6.93662-1.17587-9.893a4.8374,4.8374,0,0,1,1.77841-4.79075,1.95536,1.95536,0,0,1,1.1617-.43726,2.72043,2.72043,0,0,1,2.24139,1.70649c.09853.25162.39677,1.14291-.82315,3.58818C426.81332,187.76236,428.87628,194.46081,431.50651,194.10379Z"/><path d="M406.141,190.04485a.87809.87809,0,0,0,.23911.02405l3.94133-.1424a3.53064,3.53064,0,0,0,2.45592-1.14344,1.05644,1.05644,0,0,0,.00894-1.42126.89508.89508,0,0,0-1.32676.00648,1.6967,1.6967,0,0,1-1.18019.54953l-3.94133.1424a.99107.99107,0,0,0-.91683,1.03824A.97707.97707,0,0,0,406.141,190.04485Z"/><path d="M363.1368,204.47368s1.5007-3.71521-1.51917-12.0206-6.28168-14.51962-5.54549-8.33341l.63906,4.7048s-4.99084-5.05735-7.7002-8.33059a5.26166,5.26166,0,0,0-6.05367-1.59728c-1.94511.82492-2.59936,2.38765-.2162,6.75243,3.56434,6.52814,5.63322,9.87513,6.985,11.22943.46832.46919,5.94389,5.13474,5.94389,5.13474Z" fill="#f9977a"/><path d="M359.47951,192.11871a4.79436,4.79436,0,0,1-1.7287-1.362,5.12528,5.12528,0,0,1-1.03961-1.93225,3.92994,3.92994,0,0,1,1.80878,1.29419A4.22737,4.22737,0,0,1,359.47951,192.11871Z" fill="#dd765e"/><path d="M351.63417,187.25079a14.17091,14.17091,0,0,1-1.98236-1.806,21.49555,21.49555,0,0,1-1.69336-2.06128,17.987,17.987,0,0,1-1.40265-2.28106,9.30145,9.30145,0,0,1-.92041-2.5337c1.07727,1.43976,2.106,2.81092,3.13459,4.23145A40.61818,40.61818,0,0,1,351.63417,187.25079Z" fill="#dd765e"/><path d="M349.29836,188.43835a14.68042,14.68042,0,0,1-2.24659-1.89038,20.03212,20.03212,0,0,1-1.91131-2.22528,14.38076,14.38076,0,0,1-1.51294-2.53961,6.07041,6.07041,0,0,1-.67017-2.88648,12.82741,12.82741,0,0,0,1.35492,2.51227c.52338.785,1.06012,1.564,1.63434,2.32306C347.06191,185.27521,348.24056,186.77789,349.29836,188.43835Z" fill="#dd765e"/><path d="M346.86122,189.02136a10.63437,10.63437,0,0,1-1.92907-1.53345,16.38146,16.38146,0,0,1-1.6178-1.84424,11.10852,11.10852,0,0,1-2.10254-4.43225c.526.64838.99481,1.29059,1.47211,1.92969l1.43206,1.9057C345.05782,186.33,346.01521,187.59588,346.86122,189.02136Z" fill="#dd765e"/><path d="M466.238,257.58277c-.44128-4.26733-2.48962-11.99278-9.57709-24.6846-16.79989-30.06771-27.8116-28.46125-27.8116-28.46125-23.4335,26.53625-16.41968-1.71663-16.41968-1.71663-6.76833.51493-27.06315,24.45138-27.06315,24.45138l-21.85159-30.69311-8.3263,5.71422a110.61311,110.61311,0,0,0,23.56822,43.434,7.79,7.79,0,0,0,8.3754,2.18276l6.254-1.37354-.73587,30.69311,44.24325,1.04243-7.81137,14.0528,10.9261,8.84122,24.5861-36.86119A10.05165,10.05165,0,0,0,466.238,257.58277Zm-25.97222,13.09628V248.39816c2.63632,4.3287,5.30977,8.314,6.254,8.43646Z" fill="#ffba55"/><path d="M431.4684,362.03766c1.48792,1.05285,2.99994,2.05017,4.54846,2.94323a18.78367,18.78367,0,0,0,2.37818,1.17322,6.741,6.741,0,0,0,2.44006.58789l.95331-.00525-.53192.77283a11.73126,11.73126,0,0,1-1.90625,2.13477,10.04454,10.04454,0,0,1-2.386,1.55188,7.2602,7.2602,0,0,1-2.7569.6698,7.11037,7.11037,0,0,1-2.739-.46167,8.23144,8.23144,0,0,0,2.68713-.02723,7.70789,7.70789,0,0,0,2.45936-.88012,10.76994,10.76994,0,0,0,2.0993-1.55579,11.56234,11.56234,0,0,0,1.69965-1.96789l.42126.76745a7.34615,7.34615,0,0,1-2.80865-.71875,15.238,15.238,0,0,1-2.42078-1.38306,23.08152,23.08152,0,0,1-2.178-1.68444A24.74,24.74,0,0,1,431.4684,362.03766Z" fill="#5e7c24"/><path d="M397.07961,361.954c1.48785,1.05273,2.99994,2.05017,4.5484,2.94324a18.77184,18.77184,0,0,0,2.37823,1.17309,6.736,6.736,0,0,0,2.44007.58789l.95324-.00513-.53186.77283a11.72933,11.72933,0,0,1-1.90631,2.13477,10.04382,10.04382,0,0,1-2.38592,1.55188,7.2601,7.2601,0,0,1-2.7569.66968,7.11026,7.11026,0,0,1-2.73895-.46155,8.23172,8.23172,0,0,0,2.68713-.02722,7.70458,7.70458,0,0,0,2.45929-.88025,10.76244,10.76244,0,0,0,2.09937-1.55567,11.55878,11.55878,0,0,0,1.69958-1.96789l.42133.76745a7.34394,7.34394,0,0,1-2.80866-.71887,15.2261,15.2261,0,0,1-2.42077-1.38293,23.10068,23.10068,0,0,1-2.178-1.68445A24.73826,24.73826,0,0,1,397.07961,361.954Z" fill="#5e7c24"/><path d="M406.44643,298.46808l.3761,6.92395.33593,6.92163c.23963,4.61267.40979,9.22754.71,13.83423.22772,4.61.51232,9.21777.89587,13.81372.07117,1.15222.20087,2.29651.30633,3.44494.09577,1.15027.23572,2.29322.39093,3.43445l.20344,1.7179.29357,1.70129a30.39554,30.39554,0,0,0,.7829,3.3678c-1.64642-4.3457-2.15106-9.01587-2.74267-13.59107-.544-4.59985-.82129-9.21936-1.12769-13.83435-.21722-4.62036-.40277-9.24072-.478-13.864C406.32125,307.71563,406.30586,303.09149,406.44643,298.46808Z" fill="#5e7c24"/><path d="M348.44457,459.24857h41.65321v2.10719l-42.90925.00012S345.99294,460.07837,348.44457,459.24857Z" fill="#935b50"/><path d="M361.32393,453.77093a3.10724,3.10724,0,0,1,2.016.20288,3.41136,3.41136,0,0,1,1.60028,1.43994,2.79387,2.79387,0,0,1,.22187,2.28406,2.58668,2.58668,0,0,1-1.38654,1.55078,14.54089,14.54089,0,0,0-.17432-1.74267,3.42456,3.42456,0,0,0-.41241-1.12769,9.50063,9.50063,0,0,0-.77539-1.14038C362.09377,454.81,361.72536,454.3631,361.32393,453.77093Z" fill="#935b50"/><path d="M436.89363,278.17145c1.41248-3.64246,2.92231-7.24134,4.4571-10.82886.74755-1.80274,1.56372-3.57447,2.345-5.36206l2.36895-5.3512.39057.70044a1.39927,1.39927,0,0,1-.52893-.22815,2.38643,2.38643,0,0,1-.3407-.26855,6.266,6.266,0,0,1-.54285-.55732c-.33673-.37652-.63061-.7669-.92621-1.158-.58252-.78486-1.12353-1.588-1.653-2.39734-1.04285-1.62751-2.091-3.24787-3.00031-4.94776-1.8565-3.37658-3.69732-6.76-5.439-10.19012,2.10266,3.23138,4.10614,6.5094,6.094,9.79431,1.009,1.633,2.03314,3.25507,3.10169,4.84082.53546.79132,1.0819,1.57513,1.65741,2.32544.28967.37122.58123.74506.89141,1.08026a5.30984,5.30984,0,0,0,.469.46838,1.47494,1.47494,0,0,0,.226.17487c.08539.06592.1123.05225.12036.07294l.39063.70074-2.44916,5.3147c-.82483,1.76782-1.61469,3.55139-2.47321,5.30408L439.519,272.936C438.64266,274.6806,437.79769,276.43927,436.89363,278.17145Z" fill="#e6952a"/><path d="M461.60634,253.4555a10.25982,10.25982,0,0,1,.12964,2.84729,11.67021,11.67021,0,0,1-.56171,2.81751,8.17505,8.17505,0,0,1-1.36255,2.57715,4.73935,4.73935,0,0,1-2.3684,1.64514,8.01324,8.01324,0,0,0,1.72631-2.0885,12.895,12.895,0,0,0,1.057-2.45117C460.81435,257.09747,461.15651,255.30133,461.60634,253.4555Z" fill="#e6952a"/><path d="M379.3868,237.584a19.0912,19.0912,0,0,0,3.36743,3.01435,8.18663,8.18663,0,0,0,1.94525.95117,11.29269,11.29269,0,0,0,2.23279.4577,4.57209,4.57209,0,0,1-2.4043.30353,5.60623,5.60623,0,0,1-2.3197-.87531,7.12164,7.12164,0,0,1-1.76941-1.691A6.06581,6.06581,0,0,1,379.3868,237.584Z" fill="#e6952a"/><path d="M385.37117,227.17645a6.42494,6.42494,0,0,1-1.18542,3.15747,5.11133,5.11133,0,0,1-1.23987,1.2348,1.78726,1.78726,0,0,1-1.73773.29114,2.55171,2.55171,0,0,0,1.233-.88623q.48239-.57953.93085-1.21991A23.09312,23.09312,0,0,1,385.37117,227.17645Z" fill="#e6952a"/><path d="M446.5154,256.838a3.58278,3.58278,0,0,1,.47809-1.5481,4.57514,4.57514,0,0,1,1.04467-1.27252,3.70873,3.70873,0,0,1,1.51868-.73773,2.59811,2.59811,0,0,1,1.642.1759,9.44154,9.44154,0,0,0-1.38721.56171,7.71353,7.71353,0,0,0-1.14032.77344C447.948,255.3822,447.30647,256.08868,446.5154,256.838Z" fill="#e6952a"/><path d="M398.12038,258.39911a24.37915,24.37915,0,0,0,2.31384,3.731,21.17267,21.17267,0,0,0,2.90631,3.19348,20.28635,20.28635,0,0,0,3.465,2.56543,31.90505,31.90505,0,0,0,3.93591,1.95838,14.49776,14.49776,0,0,1-4.30255-1.26953,14.78035,14.78035,0,0,1-3.771-2.51514,15.25977,15.25977,0,0,1-2.879-3.49914A12.85872,12.85872,0,0,1,398.12038,258.39911Z" fill="#e6952a"/><path d="M393.38619,246.43042a51.92393,51.92393,0,0,1,.41467-8.54145,42.59637,42.59637,0,0,1,1.7926-8.36584c-.15661,2.863-.45965,5.67133-.8009,8.48962C394.42745,240.82611,394.03487,243.63562,393.38619,246.43042Z" fill="#e6952a"/><path d="M440.26583,270.67914a110.09671,110.09671,0,0,1-.4997-11.14051,108.81412,108.81412,0,0,1,.4997-11.1405,108.85114,108.85114,0,0,1,.49969,11.1405A110.13461,110.13461,0,0,1,440.26583,270.67914Z" fill="#e6952a"/><path d="M430.475,293.35054l-1.65238,3.036h-2.25237a3.93412,3.93412,0,0,0-3.66662,2.50821l-2.66722,6.85857s-.78056,3.90282,1.82132,2.86207a24.84539,24.84539,0,0,0,4.58417-5.98433l8.31776,8.20949v-6.128l3.599-4.81811Z" fill="#f9977a"/><path d="M420.23641,292.744c.59423.936,1.16949,1.87438,1.80291,2.77746q.902,1.38191,1.87049,2.71448c1.29382,1.77331,2.61975,3.51684,4.03467,5.18493a64.27059,64.27059,0,0,0,4.45916,4.807l1.19074,1.13233c.40368.37048.83453.70849,1.24884,1.06909.79681.7666,1.72064,1.36194,2.56561,2.089a29.62518,29.62518,0,0,1-5.52045-3.71924,38.44861,38.44861,0,0,1-4.70837-4.7345,46.14348,46.14348,0,0,1-3.90729-5.40381A37.74672,37.74672,0,0,1,420.23641,292.744Z" fill="#5e7c24"/><path d="M428.82259,296.38654h-2.25237a3.93412,3.93412,0,0,0-3.66662,2.50821l-2.66722,6.85857s-.78056,3.90282,1.82132,2.86207a24.84539,24.84539,0,0,0,4.58417-5.98433Z" fill="#f9977a"/><path d="M377.0909,445.211a34.381,34.381,0,0,0,3.37274,1.49292,11.14937,11.14937,0,0,0,3.25024.72107,8.93006,8.93006,0,0,0,1.59382-.07,9.24072,9.24072,0,0,0,1.57251-.45593,10.88035,10.88035,0,0,0,1.58734-.73316c.53991-.28064,1.02435-.65918,1.63336-.95495a8.99482,8.99482,0,0,1-.99268,1.69921,7.0054,7.0054,0,0,1-1.48523,1.375,6.7901,6.7901,0,0,1-1.889.91834c-.34576.079-.70037.13049-1.05334.19238a6.12727,6.12727,0,0,1-1.06659.02588,7.75723,7.75723,0,0,1-3.8717-1.32654A7.91254,7.91254,0,0,1,377.0909,445.211Z" fill="#935b50"/><path d="M428.39921,436.8882l-.07084,8.326s-10.9714,8.71635-25.02152,11.05821c0,0-4.29307,1.97132-4.29307,5.08339h42.324v-16.1416l-.06522-8.326Z" fill="#f9977a"/><path d="M441.34089,445.211v16.14h-42.33c0-3.11,4.29993-5.08007,4.29993-5.08007,14.05005-2.33985,25.02-11.05994,25.02-11.05994S435.07087,452.69107,441.34089,445.211Z" fill="#d6694b"/><path d="M399.68457,459.24857h41.65321v2.10719l-42.90925.00012S397.23294,460.07837,399.68457,459.24857Z" fill="#935b50"/><path d="M412.564,453.77093a3.10707,3.10707,0,0,1,2.01593.20288,3.411,3.411,0,0,1,1.60028,1.43994,2.79387,2.79387,0,0,1,.22187,2.28406,2.5865,2.5865,0,0,1-1.38654,1.55078,14.54089,14.54089,0,0,0-.17432-1.74267,3.42456,3.42456,0,0,0-.41241-1.12769,9.50063,9.50063,0,0,0-.77539-1.14038C413.33376,454.81,412.96535,454.3631,412.564,453.77093Z" fill="#935b50"/><path d="M428.33089,445.211a34.381,34.381,0,0,0,3.37274,1.49292,11.14937,11.14937,0,0,0,3.25024.72107,8.93006,8.93006,0,0,0,1.59382-.07,9.23914,9.23914,0,0,0,1.57251-.45593,10.87746,10.87746,0,0,0,1.58734-.73316c.53991-.28064,1.02435-.65918,1.63336-.95495a8.99451,8.99451,0,0,1-.99262,1.69921,7.00717,7.00717,0,0,1-1.48529,1.375,6.78936,6.78936,0,0,1-1.889.91834c-.34571.079-.70038.13049-1.05335.19238a6.12713,6.12713,0,0,1-1.06659.02588,7.75723,7.75723,0,0,1-3.8717-1.32654A7.91254,7.91254,0,0,1,428.33089,445.211Z" fill="#935b50"/></svg>