<svg id="Layer_1" data-name="Layer 1" xmlns="http://www.w3.org/2000/svg" viewBox="0 0 700 550"><title>students discussing studies</title><path d="M563.55763,365.91219c-24.92481,96.7655-100.53958,93.88828-224.56118,93.88828S114.4355,465.83613,114.4355,365.91222,221.9297,225.932,338.99659,184.984C515.41212,123.27694,600.50392,222.47506,563.55763,365.91219Z" fill="#efedef"/><path d="M492.26758,462.00169l-.27344-.96094c45.14746-12.86816,71.01172-40.85742,83.86231-90.75488,19.74023-76.62793,7.2832-142.42871-34.17676-180.53223-44.87012-41.23535-119.05078-46.63964-208.88379-15.2207l-.33008-.94336c90.19629-31.54883,164.73633-26.06933,209.89063,15.42871,41.74023,38.35938,54.30371,104.52051,34.46875,181.51758C563.875,420.81614,537.79688,449.02611,492.26758,462.00169Z" fill="#efedef"/><path d="M225.22111,96.76H471.775A2.99505,2.99505,0,0,1,474.77,99.75505V287.68779a2.995,2.995,0,0,1-2.995,2.995H225.2211a2.995,2.995,0,0,1-2.995-2.995V99.75505A2.99505,2.99505,0,0,1,225.22111,96.76Z" fill="#904d24"/><path d="M231.24791,103.31889H465.74819a2.82094,2.82094,0,0,1,2.84861,2.79245V281.33148a2.821,2.821,0,0,1-2.84861,2.79247H231.24791a2.821,2.821,0,0,1-2.84862-2.79247V106.11134A2.82094,2.82094,0,0,1,231.24791,103.31889Z" fill="#558031"/><circle cx="156.00194" cy="165.5573" r="26.31743" fill="#ffba55"/><path d="M156.00155,192.34424a26.78711,26.78711,0,1,1,26.78711-26.78711A26.81739,26.81739,0,0,1,156.00155,192.34424Zm0-52.63477a25.84766,25.84766,0,1,0,25.84766,25.84766A25.87631,25.87631,0,0,0,156.00155,139.70947Z" fill="#d77f4a"/><path d="M156.00155,167.90478a.47054.47054,0,0,1-.46973-.46972V150.46435a.46973.46973,0,0,1,.93946,0v16.97071A.47054.47054,0,0,1,156.00155,167.90478Z" fill="#d77f4a"/><path d="M170.60311,171.41553a.47357.47357,0,0,1-.21-.04981l-17.6084-8.83008a.46948.46948,0,0,1,.41992-.83984l17.6084,8.83008a.46965.46965,0,0,1-.21.88965Z" fill="#d77f4a"/><path d="M279.83056,329.42129h51.30419a0,0,0,0,1,0,0v8.14531a0,0,0,0,1,0,0H279.83056a3.50483,3.50483,0,0,1-3.50483-3.50483v-1.13566A3.50483,3.50483,0,0,1,279.83056,329.42129Z" fill="#fff"/><path d="M332.73919,337.7751a.738.738,0,0,1-.738.738H278.75311c-2.03308,0-3.68681-2.233-3.68681-4.9782,0-2.74454,1.65373-4.97753,3.68681-4.97753h53.24808a.738.738,0,0,1,.738.738v.5809a.738.738,0,0,1-.738.738H278.75311c-1.19307,0-2.16349,1.31033-2.16349,2.92063,0,1.611.97042,2.9213,2.16349,2.9213h53.24808a.738.738,0,0,1,.738.738Z" fill="#f65b2b"/><path d="M271.82613,319.46556h51.30419a0,0,0,0,1,0,0v8.14531a0,0,0,0,1,0,0H271.82613a3.50483,3.50483,0,0,1-3.50483-3.50483v-1.13566A3.50483,3.50483,0,0,1,271.82613,319.46556Z" fill="#fff"/><path d="M324.73476,327.81937a.738.738,0,0,1-.738.738H270.74867c-2.03307,0-3.6868-2.233-3.6868-4.9782,0-2.74454,1.65373-4.97753,3.6868-4.97753h53.24809a.738.738,0,0,1,.738.738v.5809a.738.738,0,0,1-.738.738H270.74867c-1.19306,0-2.16349,1.31033-2.16349,2.92063,0,1.611.97043,2.9213,2.16349,2.9213h53.24809a.738.738,0,0,1,.738.738Z" fill="#ffba55"/><path d="M288.21087,309.50984h51.30419a0,0,0,0,1,0,0v8.14531a0,0,0,0,1,0,0H288.21087a3.50483,3.50483,0,0,1-3.50483-3.50483v-1.13566A3.50483,3.50483,0,0,1,288.21087,309.50984Z" fill="#fff"/><path d="M341.1195,317.86364a.738.738,0,0,1-.738.738H287.13342c-2.03308,0-3.68681-2.233-3.68681-4.9782,0-2.74453,1.65373-4.97753,3.68681-4.97753H340.3815a.738.738,0,0,1,.738.738v.5809a.738.738,0,0,1-.738.738H287.13342c-1.19307,0-2.16349,1.31033-2.16349,2.92063,0,1.611.97042,2.9213,2.16349,2.9213H340.3815a.738.738,0,0,1,.738.738Z" fill="#f65b2b"/><path d="M259.3148,332.775s11.98463-1.49792,12.34-3.29216-5.30961-2.1704-5.30961-2.1704l.74623-3.76792,9.99073-6.98247a1.19679,1.19679,0,0,0,.29531-1.66652q-.024-.03417-.05011-.06655h0a1.19526,1.19526,0,0,0-1.11921-.42988c-2.98037.47514-18.0172,4.35968-22.30537,12.35109Z" fill="#f9977a"/><path d="M407.243,332.85686h51.30419a0,0,0,0,1,0,0v8.14531a0,0,0,0,1,0,0H407.243a3.50483,3.50483,0,0,1-3.50483-3.50483v-1.13566A3.50483,3.50483,0,0,1,407.243,332.85686Z" fill="#fff"/><path d="M460.15159,341.21067a.738.738,0,0,1-.738.738H406.16551c-2.03308,0-3.68681-2.233-3.68681-4.9782,0-2.74454,1.65373-4.97753,3.68681-4.97753h53.24808a.738.738,0,0,1,.738.738v.5809a.738.738,0,0,1-.738.738H406.16551c-1.19307,0-2.16349,1.31033-2.16349,2.92063,0,1.611.97042,2.9213,2.16349,2.9213h53.24808a.738.738,0,0,1,.738.738Z" fill="#f65b2b"/><path d="M399.23853,322.90114h51.30419a0,0,0,0,1,0,0v8.14531a0,0,0,0,1,0,0H399.23853a3.50483,3.50483,0,0,1-3.50483-3.50483V326.406A3.50483,3.50483,0,0,1,399.23853,322.90114Z" fill="#fff"/><path d="M452.14716,331.25494a.738.738,0,0,1-.738.738H398.16108c-2.03308,0-3.68681-2.233-3.68681-4.9782,0-2.74454,1.65373-4.97753,3.68681-4.97753h53.24808a.738.738,0,0,1,.738.738v.5809a.738.738,0,0,1-.738.738H398.16108c-1.19307,0-2.16349,1.31033-2.16349,2.92063,0,1.611.97042,2.9213,2.16349,2.9213h53.24808a.738.738,0,0,1,.738.738Z" fill="#ffba55"/><path d="M415.62328,312.94541h51.30419a0,0,0,0,1,0,0v8.14531a0,0,0,0,1,0,0H415.62328a3.50483,3.50483,0,0,1-3.50483-3.50483v-1.13566A3.50483,3.50483,0,0,1,415.62328,312.94541Z" fill="#fff"/><path d="M468.53191,321.29921a.738.738,0,0,1-.738.738H414.54582c-2.03307,0-3.68681-2.233-3.68681-4.9782,0-2.74453,1.65374-4.97753,3.68681-4.97753h53.24809a.738.738,0,0,1,.738.738v.5809a.738.738,0,0,1-.738.738H414.54582c-1.19306,0-2.16349,1.31034-2.16349,2.92063,0,1.611.97043,2.92131,2.16349,2.92131h53.24809a.738.738,0,0,1,.738.738Z" fill="#f65b2b"/><rect x="135.36209" y="344.33468" width="7.38773" height="117.18654" transform="translate(278.11192 805.85591) rotate(-180)" fill="#935b50"/><rect x="121.21806" y="338.66866" width="222.01078" height="5.66603" rx="1.27364" transform="translate(464.44691 683.00334) rotate(-180)" fill="#935b50"/><rect x="321.10775" y="344.33468" width="7.38773" height="117.18654" transform="translate(649.60323 805.85591) rotate(-180)" fill="#935b50"/><path d="M132.10022,344.33468H331.84155a2.54728,2.54728,0,0,1,2.54728,2.54728v15.98553a0,0,0,0,1,0,0H129.55294a0,0,0,0,1,0,0V346.882A2.54728,2.54728,0,0,1,132.10022,344.33468Z" transform="translate(463.94177 707.20218) rotate(-180)" fill="#c38f86"/><path d="M192.50132,293.78966l-.97124-35.0701,26.18617,1.4366L216.56763,281.093a8.3215,8.3215,0,0,1-8.76485,7.85317l-.59694-.03275-.1951,5.98647Z" fill="#f9977a"/><polygon points="207.206 288.913 203.019 288.684 207.011 294.9 207.206 288.913" fill="#dd765e"/><path d="M190.47744,287.9957s13.02288,2.8452,18.1151-12.20778c0,0-5.67367-3.51106.37191-6.77916,0,0,3.22665-.48961,3.25019,1.51156l5.50161-10.36416s4.9855,1.47343,5.04781-4.52276c0,0,5.35179-2.77287-.88275-5.7814,0,0,.67422-7.42919-6.66977-2.36578,0,0-4.18-11.29527-17.2696,3.71894,0,0-20.0335.63417-11.50739,17.76751Z" fill="#160b07"/><path d="M283.50808,435.87242s1.51113,4.58188,3.0466,6.60233,17.805,16.58477,17.805,16.58477l-29.14639-1.20911s-8.41911-.103-5.49364-9.136,2.39818-14.21408,2.39818-14.21408Z" fill="#f9977a"/><path d="M297.41537,406.80268s2.3363,4.22123,4.2205,5.92114,20.577,12.987,20.577,12.987l-28.86337,4.2285s-8.2916,1.46337-7.09577-7.95592-.28513-14.41214-.28513-14.41214Z" fill="#f9977a"/><path d="M304.85388,458.52122s1.55673-1.30613-6.4863-6.97205-10.36612-9.44643-10.36612-9.44643-.561-2.81852-3.25517,2.25368-10.25563,12.68967-10.25563,12.68967Z" fill="#ffba55"/><path d="M286.57356,461.23876s-3.93814-2.79682-4.20225-2.41606l-2.45752,2.69852-10.79839-.22405-.144-4.23753,35.76392,1.3552s1.89557.42556.4415,2.86575Z" fill="#f73c4f"/><path d="M322.74132,425.84587s1.28688-1.57268-7.669-5.64519-11.94106-7.35545-11.94106-7.35545-1.075-2.66516-2.77965,2.81936-7.71874,14.37452-7.71874,14.37452Z" fill="#ffba55"/><path d="M305.42067,431.19853s-4.38929-2.01624-4.578-1.593l-1.91322,3.10822-10.65193,1.78661-.92894-4.137,35.39278-5.31475s1.94163.06588.96637,2.73379Z" fill="#f73c4f"/><path d="M175.41627,349.04343s-13.7107-54.0338,15.37023-56.57838l16.22424,2.43485s6.25618,4.52419,11.57254,15.02059S229.216,329.82276,229.216,329.82276l27.536-6.81585,3.68056,10.63272S233.57814,350.67924,227.9437,350.861c0,0-11.0871.36351-13.99519-6.54321l-2.18107,6.54651S180.68719,352.86031,175.41627,349.04343Z" fill="#f73c4f"/><path d="M234.99691,358.77423l32.53654-11.32149a16.40738,16.40738,0,0,1,20.78452,9.80362,279.72,279.72,0,0,1,13.11526,47.268,2.00637,2.00637,0,0,1-1.42254,2.269l-10.27,2.95652L288.725,435.81814a2,2,0,0,1-1.99849,1.92213H271.99717a2,2,0,0,1-1.97469-1.68278l-6.9999-43.57442-16.17627,1.454s-84.88,17.2668-71.43-44.89369l36.35117,1.82086,4.24283,3.93427A18.82523,18.82523,0,0,0,234.99691,358.77423Z" fill="#376f92"/><rect x="179.05975" y="392.61587" width="5" height="68.46191" fill="#c38f86"/><rect x="228.05975" y="392.61587" width="5" height="68.46191" fill="#c38f86"/><path d="M229.216,329.82274a12.43414,12.43414,0,0,1-.44705,1.56867,11.9352,11.9352,0,0,1-.63984,1.50042,5.89521,5.89521,0,0,1,1.08689-3.06909Z" fill="#b02336"/><path d="M213.9485,344.3178q-1.09206-1.76744-2.1358-3.56177l-2.05867-3.60492-1.99162-3.64233q-.98322-1.82821-1.91346-3.686,1.09284,1.767,2.13633,3.56153l2.05815,3.60516,1.99112,3.64264Q213.018,342.46011,213.9485,344.3178Z" fill="#b02336"/><path d="M228.1291,396.02074q13.12853-6.07909,26.30376-12.05515c8.78075-3.99011,17.53835-8.03125,26.34018-11.97482l-.01948.01068a3.33289,3.33289,0,0,1,2.68365-.25744,4.81735,4.81735,0,0,1,2.16188,1.59976,14.57351,14.57351,0,0,1,2.31168,4.78525,52.42338,52.42338,0,0,1,1.75755,10.44824,163.68359,163.68359,0,0,1,.07236,21.17261c.11337-3.52793.21258-7.05686.17067-10.58567-.04116-3.52762-.13675-7.05661-.44567-10.56964a52.21585,52.21585,0,0,0-1.79449-10.39181,14.33231,14.33231,0,0,0-2.284-4.68473,4.54242,4.54242,0,0,0-2.03832-1.50183,3.05179,3.05179,0,0,0-2.433.23511l-.01512.0087-.00472.00216c-8.76664,4.02118-17.57753,7.9448-26.36528,11.91947Q241.34594,390.13645,228.1291,396.02074Z" fill="#10394f"/><path d="M300.32434,398.6913c-1.68.76029-3.4039,1.40021-5.12421,2.05017-1.73364.61341-3.46354,1.23706-5.238,1.73877,1.67958-.76126,3.40376-1.40057,5.12419-2.05014C296.82008,399.81707,298.55022,399.194,300.32434,398.6913Z" fill="#10394f"/><path d="M269.12685,430.48217q2.47577-.09125,4.95152-.12708l4.95152-.0387,4.95152.03812q2.47575.03346,4.95153.12766-2.47578.0921-4.95153.12765l-4.95152.03809-4.95152-.03867Q271.60261,430.576,269.12685,430.48217Z" fill="#10394f"/><path d="M263.02258,392.48308a24.94947,24.94947,0,0,1-1.444-2.58542,24.64149,24.64149,0,0,1-1.146-2.73062,24.638,24.638,0,0,1,1.444,2.58542A24.94576,24.94576,0,0,1,263.02258,392.48308Z" fill="#10394f"/><path d="M163.51127,381.48685s-6.27058-18.81173-1.36317-57.25309c0,0,1.90843-12.9501,14.72222-13.90432s22.21965,19.81617,26.03652,41.05649,12.26852,40.22574,39.94084,40.75232c0,0,36.56514,6.25189-41.2879,9.79613C201.55978,401.93438,168.28236,402.207,163.51127,381.48685Z" fill="#935b50"/><path d="M192.9845,253.45841c-4.49981-1.26244-9.96,5.12325-11.70932,7.169-4.07352,4.764-5.46117,9.83949-6.45207,13.62106-.89509,3.41588-.69272,4.18088-1.67276,13.14314-1.72841,15.80593-2.83888,17.82559-4.30138,19.35616-2.83116,2.96292-4.36606,1.35554-10.75345,5.49623-4.31906,2.79989-8.33612,5.40393-9.7976,10.27551-1.15426,3.84752-.88381,9.67394,2.38966,12.42619,6.14936,5.17025,20.1878-2.78539,26.28622-7.16892,15.41975-11.0837,19.93279-27.979,21.26793-32.97729a60.45311,60.45311,0,0,0,1.4338-24.13552C198.90449,264.16524,197.79433,254.8078,192.9845,253.45841Z" fill="#160b07"/><rect x="512.95762" y="386.28" width="5" height="74.79779" fill="#c38f86"/><path d="M487.3758,248.18174s-1.51593-6.11339,12.12737-2.31116,11.95341,8.62336,5.56666,29.24984C505.06983,275.12042,482.48011,281.209,487.3758,248.18174Z" fill="#1e1d22"/><rect x="376.5469" y="347.50961" width="7.18758" height="114.01161" transform="translate(760.28138 809.03083) rotate(-180)" fill="#935b50"/><rect x="362.78607" y="341.99709" width="215.99586" height="5.51252" rx="1.23913" transform="translate(941.56801 689.50671) rotate(-180)" fill="#935b50"/><rect x="557.26017" y="347.50961" width="7.18758" height="114.01161" transform="translate(1121.70791 809.03083) rotate(-180)" fill="#935b50"/><path d="M373.3734,347.50961H567.70316a2.47826,2.47826,0,0,1,2.47826,2.47826v15.55244a0,0,0,0,1,0,0H370.89513a0,0,0,0,1,0,0V349.98788A2.47826,2.47826,0,0,1,373.3734,347.50961Z" transform="translate(941.07655 713.04992) rotate(-180)" fill="#c38f86"/><path d="M471.76926,391.92094s-35.13282,25.4713-91.47412,56.39764a2.00854,2.00854,0,0,1-2.60032-.59325l-12.39413-17.45295a2,2,0,0,1,.513-2.81654l39.45387-26.58848L415.386,370.91652a23.89611,23.89611,0,0,1,19.64679-16.0597l15.86144-2.00193,19.38392-4.175,49.2358,27.975S489.63318,406.34949,471.76926,391.92094Z" fill="#ffba55"/><polyline points="405.268 400.867 396.918 433.074 420.476 433.074 439.137 386.553" fill="#ffba55"/><path d="M487.3758,291.224l2.98214-6.75952,14.71189-9.344,4.57262,6.3619,16.30237,8.74761s33.00236,28.62856,33.99641,47.11783c0,0,1.59047,4.904-6.56071,4.63889l-20.07975.01037-.29432,6.15806c.29432,15.432-13.49246,28.49978-13.49246,28.49978l-35.836-20.36142-2.96823,3.02741a15.94118,15.94118,0,0,1-21.88132.83275c-10.88083-9.51674-25.75241-25.0774-28.70974-41.0963l11.69529-6.36191s21.30707,25.05,24.88564,25.84523C466.69962,338.54062,472.79643,305.3493,487.3758,291.224Z" fill="#376f92"/><path d="M415.10858,420.25127l.46535-1.42633a.03094.03094,0,0,1,.05883.01919l-.00042.00123Z" fill="#e6952a"/><path d="M416.47915,416.06087l.91656-2.7601a.13238.13238,0,0,1,.25127.08343l-.00134.00385-1.001,2.73062a.08767.08767,0,0,1-.16551-.0578Z" fill="#e6952a"/><path d="M418.31228,410.54067l.91657-2.7601a.22179.22179,0,1,1,.421.1398l-.00225.00644-1.001,2.73062a.17709.17709,0,0,1-.33433-.11676Z" fill="#e6952a"/><path d="M420.15146,405.02257l.933-2.75439a.28739.28739,0,1,1,.54439.18441l-.00178.0051-.98456,2.73636a.26007.26007,0,0,1-.491-.17148Z" fill="#e6952a"/><path d="M422.01743,399.51381l.933-2.75436a.342.342,0,1,1,.64787.21945l-.00212.006-.98456,2.73639a.3147.3147,0,0,1-.59418-.20752Z" fill="#e6952a"/><path d="M423.8834,394.00505l.933-2.75436a.39663.39663,0,0,1,.75134.25449l-.00245.007-.98456,2.73635a.36933.36933,0,0,1-.69732-.24353Z" fill="#e6952a"/><path d="M425.75067,388.49675l.95024-2.74832a.43159.43159,0,0,1,.8158.282l-.00088.00254-.9673,2.7424a.42256.42256,0,0,1-.79786-.27866Z" fill="#e6952a"/><path d="M427.65115,383.00008l.95024-2.74835a.44966.44966,0,1,1,.85.29385l-.00092.00266-.9673,2.7424a.44063.44063,0,0,1-.832-.29056Z" fill="#e6952a"/><path d="M429.55163,377.50338l.95024-2.74836a.46774.46774,0,0,1,.88412.3057l-.001.00271-.9673,2.7424a.4587.4587,0,0,1-.8661-.30245Z" fill="#e6952a"/><path d="M431.45211,372.00667l.49012-1.41757a.487.487,0,0,1,.44658-.32272l1.49358-.03528a.4861.4861,0,1,1,.02693.97183l-.005.00009-1.49937.02609.44632-.32254-.49893,1.41449a.47677.47677,0,0,1-.90022-.31439Z" fill="#e6952a"/><path d="M436.78056,370.14873l2.9012-.0878a.49584.49584,0,0,1,.03428.99109l-.00239.00006-2.90558.08652a.49513.49513,0,1,1-.02751-.98987Z" fill="#e6952a"/><path d="M442.58147,369.9706l2.90221-.10257a.47766.47766,0,0,1,.03874.95453l-2.90556.12091a.48675.48675,0,1,1-.04047-.97266Z" fill="#e6952a"/><path d="M448.38148,369.75325l2.90158-.1278a.45948.45948,0,0,1,.04543.91784l-2.90495.14618a.46858.46858,0,0,1-.0471-.936Z" fill="#e6952a"/><path d="M454.18431,369.48394l2.90047-.15616a.44132.44132,0,0,1,.05256.88107l-2.90412.17456a.4504.4504,0,1,1-.05405-.89917Z" fill="#e6952a"/><path d="M459.9786,369.15605l2.895-.18942a.42315.42315,0,1,1,.06065.84412l-2.89918.20791a.43224.43224,0,0,1-.06184-.86227Z" fill="#e6952a"/><path d="M465.7712,368.77315l2.89964-.21347a.3708.3708,0,0,1,.06454.73877l-2.90139.26871a.39827.39827,0,1,1-.07346-.79315Z" fill="#e6952a"/><path d="M471.56346,368.321l2.88977-.2687a.31586.31586,0,0,1,.34707.28121.3194.3194,0,0,1-.279.34681l-2.89159.32409a.34334.34334,0,1,1-.07649-.6824Z" fill="#e6952a"/><path d="M477.33916,367.74752l2.88055-.34946a.26093.26093,0,0,1,.29456.22229.2653.2653,0,0,1-.22211.29449l-2.8829.40519a.28842.28842,0,0,1-.08028-.57123Z" fill="#e6952a"/><path d="M483.094,367.00145l2.86361-.46808.00609-.001a.17791.17791,0,0,1,.06282.35019l-2.86048.5589a.223.223,0,0,1-.08551-.43769l.0058-.00107Z" fill="#e6952a"/><path d="M488.80008,365.94921l2.789-.7808.00938-.00265a.08787.08787,0,0,1,.05.16846l-2.78354.873a.133.133,0,1,1-.0796-.25378l.00337-.001Z" fill="#e6952a"/><path d="M494.20449,363.93489a2.1425,2.1425,0,0,0,.88813-1.15585,2.17209,2.17209,0,0,1-.85018,1.20523.03115.03115,0,1,1-.03918-.04843Z" fill="#e6952a"/><path d="M379.02467,435.75841q.599-.45849,1.21339-.89172l.1374.22622Q379.7087,435.43986,379.02467,435.75841Z" fill="#e6952a"/><path d="M382.68681,433.15245c.82757-.55276,1.65306-1.10894,2.4921-1.64285l.4537.74707c-.86064.49832-1.73481.97437-2.6069,1.45383Z" fill="#e6952a"/><path d="M387.70192,429.91768q1.265-.79014,2.54922-1.5488l.50722.83521q-1.26448.79106-2.54977,1.54788Z" fill="#e6952a"/><path d="M392.82681,426.86367c.8599-.49955,1.73508-.97391,2.60668-1.45417l.34052.5607c-.82806.55194-1.65255,1.10977-2.49232,1.64246Z" fill="#e6952a"/><path d="M398.08418,424.02779q.66694-.34667,1.35116-.66489-.59865.45909-1.213.89237Z" fill="#e6952a"/><path d="M407.355,420.25127a38.41148,38.41148,0,0,1,6.56071-.4997,37.97144,37.97144,0,0,1,6.56071.4997,37.97047,37.97047,0,0,1-6.56071.49972A38.40746,38.40746,0,0,1,407.355,420.25127Z" fill="#e6952a"/><path d="M376.04253,429.79415a54.68592,54.68592,0,0,1,3.29894,7.12558,54.05029,54.05029,0,0,1,2.36713,7.4869,54.0503,54.0503,0,0,1-3.29894-7.12561A54.68941,54.68941,0,0,1,376.04253,429.79415Z" fill="#e6952a"/><path d="M439.13651,314.15186s-9.81306-28.69644-10.21068-28.7943-3.18095-.53163,1.19286,14.39715c0,0-3.75-.43636-5.908,6.4846a7.62838,7.62838,0,0,0,1.03412,6.61835c1.64834,2.36732,4.07318,5.33833,6.003,5.58541Z" fill="#f9977a"/><path d="M485.93443,279.49113l4.42351,4.97333,14.71189-9.344s-12.57664-1.738-5.41755-7.70387c2.68392-2.2366,3.28035-7.97722-.89465-5.517,0,0-5.21874,1.04375-4.92053-3.42946s1.665-6.11339,1.665-6.11339-5.93943-1.342-8.12633-4.175l-2.65742,2.33968a5.64645,5.64645,0,0,0-1.9152,4.23794v1.02684l-5.78877,4.2451a1.173,1.173,0,0,0-.32239,1.53618c.21694.37333.50718.90815.89241,1.67408a4.50092,4.50092,0,0,1,0,3.72767l4.17358,2.35906s-5.16968,1.39154-5.2868,2.07882C476.0046,274.14507,476.2179,279.76451,485.93443,279.49113Z" fill="#f9977a"/><path d="M489.06494,257.36309a.68213.68213,0,0,1-.6748-.58985c-.32422-2.37451-3.63868-4.25879-4.88868-4.78418a.68232.68232,0,0,1,.5293-1.25781c.2124.08984,5.21631,2.2334,5.71094,5.85742a.68231.68231,0,0,1-.5835.76807A.67088.67088,0,0,1,489.06494,257.36309Z" fill="#1e1d22"/><path d="M477.73286,258.851a.82836.82836,0,0,1-.67645-1.30527l3.72764-5.293a.82823.82823,0,0,1,1.35423.95389l-3.72764,5.293A.82639.82639,0,0,1,477.73286,258.851Z" fill="#ffba55"/><path d="M529.921,311.40312c.48663,2.52686.86431,5.06574,1.22547,7.60645.37252,2.53943.667,5.08752.96109,7.63562.2705,2.55072.539,5.10168.73054,7.66113l.28382,3.83954c.05825,1.28388.15071,2.564.17884,3.85114-.25352-1.26227-.44271-2.53168-.6661-3.79731l-.56112-3.80889c-.37172-2.53955-.66654-5.08759-.95935-7.63587-.26915-2.55084-.538-5.10174-.72879-7.66131C530.18328,316.53539,529.99767,313.97527,529.921,311.40312Z" fill="#10394f"/><path d="M483.678,356.29344c2.34752-2.76858,4.54367-5.64633,6.64167-8.59036,2.07933-2.95633,4.11133-5.94516,5.97412-9.04007,1.88744-3.07824,3.67892-6.21716,5.34253-9.42614,1.708-3.18915,3.19143-6.48847,4.72579-9.78193-.59009,1.71466-1.17675,3.43775-1.8516,5.12531-.70036,1.67688-1.3942,3.35956-2.185,4.99829a98.43329,98.43329,0,0,1-11.39188,18.58209c-1.11871,1.43485-2.28043,2.83554-3.46911,4.21091C486.23729,353.714,485.01639,355.06316,483.678,356.29344Z" fill="#10394f"/><path d="M531.61089,330.787a30.7629,30.7629,0,0,1,4.974,3.14544,30.41226,30.41226,0,0,1,4.37,3.94171,30.41272,30.41272,0,0,1-4.974-3.14544A30.76245,30.76245,0,0,1,531.61089,330.787Z" fill="#10394f"/><path d="M487.37579,291.224a89.03847,89.03847,0,0,1,9.909-7.00159c1.73071-1.04907,3.48439-2.06616,5.30647-2.96619.90889-.4533,1.83613-.87524,2.79089-1.23968a13.75518,13.75518,0,0,1,1.46859-.45563,4.35892,4.35892,0,0,1,.76521-.12482c.24743-.00463.56287.001.71769.22535a.747.747,0,0,0-.69817-.0755,4.35467,4.35467,0,0,0-.7049.22772,13.3929,13.3929,0,0,0-1.34826.65039c-.88716.46222-1.75283.97131-2.61915,1.47821q-2.58777,1.54239-5.15622,3.13226C494.36687,287.16863,490.94066,289.291,487.37579,291.224Z" fill="#10394f"/><path d="M432.39678,326.70006a59.67549,59.67549,0,0,1,6.45593-5.06183,58.98184,58.98184,0,0,1,7.02354-4.23932,58.98034,58.98034,0,0,1-6.45594,5.06189A59.68313,59.68313,0,0,1,432.39678,326.70006Z" fill="#10394f"/><path d="M465.20855,351.96025c.20139-1.1203.41325-2.23434.58656-3.35473.16431-1.12171.35763-2.235.487-3.35572.14264-1.11877.20958-2.24224.25923-3.353a10.114,10.114,0,0,0-.30094-3.20307l.88675-.38018a89.83232,89.83232,0,0,1,4.07051,8.68048c.574,1.49435,1.12567,2.9985,1.5617,4.54522a16.9533,16.9533,0,0,1,.51214,2.35663,6.0629,6.0629,0,0,1-.01118,2.39752,12.199,12.199,0,0,0-1.01508-4.58856c-.5259-1.48926-1.1827-2.9349-1.83268-4.37771-1.30178-2.88645-2.702-5.74057-4.1404-8.55936l.88671-.38019a10.04131,10.04131,0,0,1,.255,3.5503,28.62736,28.62736,0,0,1-.46554,3.41418c-.22166,1.12164-.44332,2.2406-.75,3.33929C465.89553,349.79018,465.59,350.88683,465.20855,351.96025Z" fill="#10394f"/><path d="M508.5987,360.16115c1.79557-.42313,3.56848-.88675,5.337-1.34082,1.76267-.476,3.52339-.94742,5.246-1.526a49.70936,49.70936,0,0,0,5.08988-1.91461,27.64567,27.64567,0,0,0,4.75483-2.67392,16.5639,16.5639,0,0,1-4.40794,3.37292,29.89749,29.89749,0,0,1-5.12907,2.16645A39.81261,39.81261,0,0,1,508.5987,360.16115Z" fill="#10394f"/><path d="M515.45763,364.78347a33.44116,33.44116,0,0,1,5.13606-1.738,45.17093,45.17093,0,0,1,5.30143-1.09506,18.27906,18.27906,0,0,1-5.04675,2.06146A21.63831,21.63831,0,0,1,515.45763,364.78347Z" fill="#10394f"/><path d="M433.29964,322.446a1.5009,1.5009,0,0,0,0-3,1.5009,1.5009,0,0,0,0,3Z" fill="#10394f"/><path d="M398.30918,433.07449s.79524,13.022-15.30832,18.38987c0,0-8.5488,2.78333-8.5488,9.94047h40.18949a1.993,1.993,0,0,0,1.98359-1.74361c.73508-5.84477,2.93833-24.49451,1.40187-26.58673Z" fill="#376f92"/><path d="M365.58038,430.506s-10.24493,8.07754-23.836-2.09207c0,0-7.16058-5.43647-13.04057-1.356l22.91315,33.01791a1.993,1.993,0,0,0,2.56338.63556c5.22089-2.72836,21.79883-11.551,22.64173-14.00612Z" fill="#376f92"/><path d="M483.33008,258.70488a.68258.68258,0,0,1-.59863-1.00879c.00927-.01611.89453-1.644,1.52929-3.09326a.68239.68239,0,0,1,1.25.54785c-.65918,1.50391-1.54394,3.12989-1.58105,3.19873A.68211.68211,0,0,1,483.33008,258.70488Z" fill="#1e1d22"/><path d="M497.76027,262.58561a.41411.41411,0,0,1-.15688-.031l-17.8112-7.29441a.41421.41421,0,0,1,.31374-.76671l17.81121,7.29441a.41429.41429,0,0,1-.15687.79769Z" fill="#ffba55"/><path d="M493.51805,275.8681c-2.39991,2.82031-7.5835,3.623-7.5835,3.623l4.272,4.80323A83.35044,83.35044,0,0,0,493.51805,275.8681Z" fill="#dd765e"/><path d="M405.26751,400.86736c-1.99852,8.53036-4.10315,17.0332-6.22386,25.53186l-.79122,3.188a9.79229,9.79229,0,0,0-.32346,1.49521,1.56321,1.56321,0,0,0,.51232,1.14346,1.59639,1.59639,0,0,0,1.21355.41132l1.64229-.00565,3.28459-.01132,13.13836-.04523c.52092-.0058,1.15422.01517,1.58285-.00751a1.50258,1.50258,0,0,0,1.0406-.60342,9.85678,9.85678,0,0,0,.614-1.38782l.61666-1.52212,2.46668-6.08853c1.65239-4.05582,3.26973-8.12571,4.95649-12.16776l5.02058-12.14206,5.11859-12.10275-4.66361,12.28525-4.76163,12.24591c-1.574,4.08731-3.21736,8.14673-4.82571,12.22024L422.46113,429.41l-.60611,1.52637-.30305.76318a3.47291,3.47291,0,0,1-.41793.84113,2.48787,2.48787,0,0,1-1.71355,1.0097c-.37169.03607-.59061.01422-.87926.02188l-.82115.00168-13.13836-.04523-3.28459-.01129-1.64229-.00567a2.48031,2.48031,0,0,1-1.79969-.65213,2.42163,2.42163,0,0,1-.778-1.77488,8.54906,8.54906,0,0,1,.36794-1.70675l.85739-3.1709C400.57805,417.74855,402.86973,409.29421,405.26751,400.86736Z" fill="#e6952a"/><rect x="456.04715" y="386.28" width="5" height="74.79779" fill="#c38f86"/><path d="M489.74867,445.142c-.02231-.12-.02759-.18415-.02759-.18415A.71981.71981,0,0,1,489.74867,445.142Z" fill="#f73c4f"/><path d="M489.72108,444.9578s-.00524.06419-.02755.18415A.71979.71979,0,0,1,489.72108,444.9578Z" fill="#f73c4f"/><path d="M530.394,376.17393s6.70307-20.10924,1.45719-61.202c0,0-2.04007-13.84331-15.73766-14.86334s-23.75221,21.183-27.83235,43.88828S475.16641,386.99709,445.58544,387.56c0,0-39.08715,6.6831,44.13566,10.4718C489.7211,398.03179,525.29378,398.32323,530.394,376.17393Z" fill="#935b50"/><rect x="100" y="460.52122" width="500" height="2" fill="#935b50"/><path d="M257.91406,181.88506a15.12958,15.12958,0,0,1,2.50489-.19483,4.15223,4.15223,0,0,1,2.835.83985,2.71557,2.71557,0,0,1,.88476,2.11523,2.97644,2.97644,0,0,1-.77929,2.15967,4.19062,4.19062,0,0,1-3.08985,1.10986,4.47581,4.47581,0,0,1-1.0498-.08984v4.0498h-1.30567Zm1.30567,4.875a4.38067,4.38067,0,0,0,1.0791.105c1.57519,0,2.53515-.76514,2.53515-2.16016,0-1.335-.94433-1.97949-2.38476-1.97949a5.463,5.463,0,0,0-1.22949.105Z" fill="#f9f9f9"/><path d="M273.01855,191.1248a1.49909,1.49909,0,0,1-.44238.09766,5.3998,5.3998,0,0,1-.62207.03711,1.74171,1.74171,0,0,1-.93066-.20215.96278.96278,0,0,1-.31446-.86279v-1.6499h-2.26464a1.4718,1.4718,0,0,1-.17286-.43506,2.22021,2.22021,0,0,1-.06738-.54,1.09717,1.09717,0,0,1,.24024-.78711.85524.85524,0,0,1,.64453-.24756H270.709v-2.52a4.10268,4.10268,0,0,1,.457-.09765,3.64557,3.64557,0,0,1,.60742-.05225,1.68979,1.68979,0,0,1,.92285.21.99189.99189,0,0,1,.32226.88477V186.535h2.22071c.0498.11963.10254.26758.15722.44238a1.82325,1.82325,0,0,1,.082.54737,1.07867,1.07867,0,0,1-.23926.77246.83811.83811,0,0,1-.62988.24756h-1.59083Z" fill="#f9f9f9"/><path d="M280.11426,194.84453a12.76779,12.76779,0,0,1-.165-2.63965V188.845A4.312,4.312,0,0,1,281,185.53008a3.33509,3.33509,0,0,1,2.48926-1.08008c2.02539,0,3.31543,1.51514,3.31543,3.68994,0,2.56494-1.60547,3.8999-3.31543,3.8999a2.51365,2.51365,0,0,1-2.18946-1.06494h-.04492v1.16944a20.909,20.909,0,0,0,.12012,2.70019Zm1.14062-5.81982a2.01945,2.01945,0,0,0,.05957.52539,2.05716,2.05716,0,0,0,1.96485,1.45459c1.3955,0,2.20508-1.19971,2.20508-2.835,0-1.42481-.75-2.62452-2.09961-2.62452-1.03516,0-2.12989.855-2.12989,2.86475Z" fill="#f9f9f9"/><path d="M291.709,184.35967a5.19923,5.19923,0,0,1,1.55274.21777,4.1007,4.1007,0,0,1,1.17773.5625,1.81949,1.81949,0,0,1,.47168.46485,1.15513,1.15513,0,0,1,.17285.66015v5.25a2.94184,2.94184,0,0,1-.2998,1.37258,2.76442,2.76442,0,0,1-.81738.95994,3.49589,3.49589,0,0,1-1.21485.5625,5.95859,5.95859,0,0,1-1.49316.17969,5.11833,5.11833,0,0,1-2.14453-.36719,1.23638,1.23638,0,0,1-.78028-1.19238,1.25444,1.25444,0,0,1,.14258-.60742,1.18922,1.18922,0,0,1,.32227-.39746,5.046,5.046,0,0,0,.98242.40429,3.89647,3.89647,0,0,0,1.13281.165,2.637,2.637,0,0,0,1.29-.26953.92344.92344,0,0,0,.47949-.87012v-.24023a3.71958,3.71958,0,0,1-1.5.27,4.03827,4.03827,0,0,1-1.28222-.20215,2.86413,2.86413,0,0,1-1.06446-.63037,3.07137,3.07137,0,0,1-.73535-1.10254,4.19778,4.19778,0,0,1-.27734-1.605,3.98813,3.98813,0,0,1,.292-1.58984,3.027,3.027,0,0,1,.81055-1.11768,3.39558,3.39558,0,0,1,1.22949-.65967A5.29707,5.29707,0,0,1,291.709,184.35967Zm.92969,2.17529a1.47972,1.47972,0,0,0-.30762-.12012,1.787,1.787,0,0,0-.502-.06,1.4009,1.4009,0,0,0-1.10254.41259,1.71172,1.71172,0,0,0-.36718,1.17725,1.76771,1.76771,0,0,0,.36718,1.25244,1.2429,1.2429,0,0,0,.9375.38281,1.52636,1.52636,0,0,0,.97461-.28515Z" fill="#f9f9f9"/><path d="M303.85938,191.85967a3.57319,3.57319,0,0,1-.47266.09033,4.79572,4.79572,0,0,1-.668.04492,3.50438,3.50438,0,0,1-.59277-.04492,1.0156,1.0156,0,0,1-.44239-.18018.866.866,0,0,1-.27734-.36767,1.58154,1.58154,0,0,1-.09766-.60742v-3.33008a1.05035,1.05035,0,0,0-.30761-.86231,1.168,1.168,0,0,0-.75684-.24755,2.10866,2.10866,0,0,0-.57031.07519,1.61974,1.61974,0,0,0-.43457.17969v5.25a3.57285,3.57285,0,0,1-.47266.09033,4.79572,4.79572,0,0,1-.668.04492,3.49239,3.49239,0,0,1-.59179-.04492,1.01468,1.01468,0,0,1-.44336-.18018.87382.87382,0,0,1-.27735-.36767,1.60056,1.60056,0,0,1-.09765-.60742V182.095c.11035-.02.27246-.04736.48828-.0825a4.02421,4.02421,0,0,1,.65234-.05275,3.56347,3.56347,0,0,1,.59278.04492,1.01572,1.01572,0,0,1,.44238.18017.866.866,0,0,1,.27734.36768,1.6005,1.6005,0,0,1,.09766.60742v1.46973a5.33062,5.33062,0,0,1,.59179-.17237,3.69219,3.69219,0,0,1,.87793-.09765,3.35911,3.35911,0,0,1,2.31739.74267,2.81292,2.81292,0,0,1,.833,2.21241Z" fill="#f9f9f9"/><path d="M312.918,191.1248a1.49926,1.49926,0,0,1-.44238.09766,5.40006,5.40006,0,0,1-.62207.03711,1.74173,1.74173,0,0,1-.93067-.20215.96278.96278,0,0,1-.31445-.86279v-1.6499h-2.26465a1.47181,1.47181,0,0,1-.17285-.43506,2.22021,2.22021,0,0,1-.06738-.54,1.09717,1.09717,0,0,1,.24023-.78711.85524.85524,0,0,1,.64453-.24756h1.62012v-2.52a4.10239,4.10239,0,0,1,.457-.09765,3.64566,3.64566,0,0,1,.60742-.05225,1.68979,1.68979,0,0,1,.92285.21.99187.99187,0,0,1,.32227.88477V186.535h2.2207c.04981.11963.10254.26758.15723.44238a1.82325,1.82325,0,0,1,.082.54737,1.07867,1.07867,0,0,1-.23926.77246.83809.83809,0,0,1-.62988.24756H312.918Z" fill="#f9f9f9"/><path d="M321.15332,185.18486l-1.5.46485a2.146,2.146,0,0,1-.45019-.41992,1.13535,1.13535,0,0,1-.22461-.75q0-.90015,1.09472-1.25977l1.67969-.57031h.55566a1.2947,1.2947,0,0,1,1.39454,1.395v7.81494c-.11036.02-.27247.04736-.48731.08252a4.04555,4.04555,0,0,1-.65234.05273,3.49643,3.49643,0,0,1-.59278-.04492,1.01561,1.01561,0,0,1-.44238-.18018.85818.85818,0,0,1-.27734-.36767,1.58154,1.58154,0,0,1-.09766-.60742Z" fill="#f9f9f9"/><path d="M327.21289,193.46465a4.06734,4.06734,0,0,1-.40527.03808c-.12989.00489-.25.00684-.36035.00684a1.51571,1.51571,0,0,1-.9668-.26953,1.04888,1.04888,0,0,1-.33789-.87012,2.909,2.909,0,0,1,.12012-.81738q.1201-.41308.21-.72754l2.63964-9.52539c.1504-.01953.29-.03223.41993-.03709s.25-.00783.36035-.00783a1.59113,1.59113,0,0,1,.95215.25488.949.949,0,0,1,.35254.8252,2.82187,2.82187,0,0,1-.11914.82519c-.08106.25977-.15528.52-.22559.77979Z" fill="#f9f9f9"/><path d="M333.85742,182.52959a4.83864,4.83864,0,0,1,1.51465.21777,3.53532,3.53532,0,0,1,1.125.59229,2.502,2.502,0,0,1,.70508.88525,2.53685,2.53685,0,0,1,.24023,1.09473,3.94236,3.94236,0,0,1-1.78515,3l-1.96485,1.57519H337.292a2.51319,2.51319,0,0,1,.17285.41993,1.80541,1.80541,0,0,1,.082.55517,1.04652,1.04652,0,0,1-.23926.77246.86708.86708,0,0,1-.63086.23242h-5.2041a1.58686,1.58686,0,0,1-.51758-.57763,1.736,1.736,0,0,1-.1875-.83252,1.651,1.651,0,0,1,.21-.86231,2.13063,2.13063,0,0,1,.46484-.5625l2.06934-1.77q.39111-.32958.64551-.59228a4.9717,4.9717,0,0,0,.41211-.47266,1.59506,1.59506,0,0,0,.22558-.39013.98283.98283,0,0,0,.06738-.34473.75081.75081,0,0,0-.36718-.66016,1.63,1.63,0,0,0-.90821-.24023,2.90122,2.90122,0,0,0-1.07226.1875,4.294,4.294,0,0,0-.78711.39746,1.48409,1.48409,0,0,1-.41992-.44971,1.18143,1.18143,0,0,1-.165-.62988,1.2374,1.2374,0,0,1,.73437-1.1626A4.321,4.321,0,0,1,333.85742,182.52959Z" fill="#f9f9f9"/><path d="M342.25781,194.84453a12.76851,12.76851,0,0,1-.165-2.63965V188.845a4.312,4.312,0,0,1,1.05078-3.31494,3.33511,3.33511,0,0,1,2.48926-1.08008c2.02539,0,3.31543,1.51514,3.31543,3.68994,0,2.56494-1.60547,3.8999-3.31543,3.8999a2.51364,2.51364,0,0,1-2.18945-1.06494h-.04492v1.16944a20.91093,20.91093,0,0,0,.12011,2.70019Zm1.14063-5.81982a2.01945,2.01945,0,0,0,.05957.52539,2.05714,2.05714,0,0,0,1.96484,1.45459c1.39551,0,2.20508-1.19971,2.20508-2.835,0-1.42481-.75-2.62452-2.09961-2.62452-1.03516,0-2.12988.855-2.12988,2.86475Z" fill="#f9f9f9"/><path d="M355.17285,191.68a1.70418,1.70418,0,0,1-.61523.27,3.68887,3.68887,0,0,1-.915.10449,3.078,3.078,0,0,1-1.0127-.14941.98932.98932,0,0,1-.59277-.48047q-.13476-.25488-.32227-.7124-.1875-.457-.39746-1.02-.20948-.5625-.43457-1.20752-.22559-.64453-.42773-1.2749-.20216-.62989-.36719-1.21485-.16553-.58519-.27051-1.03515a1.9427,1.9427,0,0,1,1.335-.52491,1.56624,1.56624,0,0,1,.86231.21729,1.35123,1.35123,0,0,1,.50293.81787l.585,2.29492q.16553.67457.31543,1.22217.14941.54784.22461.84766h.07519q.28419-1.10962.59961-2.46.31494-1.34985.57032-2.65478a2.38029,2.38029,0,0,1,.57714-.21045,2.759,2.759,0,0,1,.62305-.07471,1.636,1.636,0,0,1,.88477.2251.84593.84593,0,0,1,.36035.77979,3.18922,3.18922,0,0,1-.11328.69777c-.07422.30516-.16993.64988-.28418,1.03465q-.17286.57788-.40528,1.22265-.2329.64527-.47265,1.25977-.24024.61524-.47266,1.14795Q355.35205,191.335,355.17285,191.68Z" fill="#f9f9f9"/><path d="M361.00781,182.52959a4.83864,4.83864,0,0,1,1.51465.21777,3.53532,3.53532,0,0,1,1.125.59229,2.502,2.502,0,0,1,.70508.88525,2.5367,2.5367,0,0,1,.24023,1.09473,3.94236,3.94236,0,0,1-1.78515,3l-1.96485,1.57519h3.59961a2.51319,2.51319,0,0,1,.17285.41993,1.80541,1.80541,0,0,1,.082.55517,1.04652,1.04652,0,0,1-.23926.77246.86708.86708,0,0,1-.63086.23242h-5.2041a1.58686,1.58686,0,0,1-.51758-.57763,1.736,1.736,0,0,1-.1875-.83252,1.651,1.651,0,0,1,.21-.86231,2.13063,2.13063,0,0,1,.46484-.5625l2.06934-1.77q.39111-.32958.64551-.59228a4.9717,4.9717,0,0,0,.41211-.47266,1.59473,1.59473,0,0,0,.22558-.39013.98285.98285,0,0,0,.06739-.34473.75082.75082,0,0,0-.36719-.66016,1.63,1.63,0,0,0-.90821-.24023,2.90122,2.90122,0,0,0-1.07226.1875,4.294,4.294,0,0,0-.78711.39746,1.48409,1.48409,0,0,1-.41992-.44971,1.18143,1.18143,0,0,1-.165-.62988,1.2374,1.2374,0,0,1,.73437-1.1626A4.321,4.321,0,0,1,361.00781,182.52959Z" fill="#f9f9f9"/><path d="M368.94238,186.95488a1.49962,1.49962,0,0,1-.17187-.43506,2.223,2.223,0,0,1-.06738-.54,1.0993,1.0993,0,0,1,.23925-.7876.8575.8575,0,0,1,.64551-.24756h5.25q.07471.18018.15723.44289a1.8238,1.8238,0,0,1,.083.54734,1.07872,1.07872,0,0,1-.24024.77246.83811.83811,0,0,1-.62988.24756Zm0,2.98487a1.49985,1.49985,0,0,1-.17187-.43506,2.22021,2.22021,0,0,1-.06738-.54,1.09718,1.09718,0,0,1,.23925-.78711.85757.85757,0,0,1,.64551-.24756h5.25c.04981.11963.10254.26758.15723.44238a1.82414,1.82414,0,0,1,.083.54737,1.07875,1.07875,0,0,1-.24024.77246.83811.83811,0,0,1-.62988.24756Z" fill="#f9f9f9"/><path d="M383.44727,186.36992a2.104,2.104,0,0,0-.71192.12012,1.64908,1.64908,0,0,0-.585.35205,1.71953,1.71953,0,0,0-.39746.57764,2.01031,2.01031,0,0,0-.15039.81006,1.75481,1.75481,0,0,0,.53223,1.395,1.90557,1.90557,0,0,0,1.29785.46485,2.57933,2.57933,0,0,0,.78027-.105,4.68453,4.68453,0,0,0,.585-.2251,1.58772,1.58772,0,0,1,.4502.45752,1.12633,1.12633,0,0,1,.14941.59277,1.051,1.051,0,0,1-.585.95266,3.25963,3.25963,0,0,1-1.62012.33689,4.97325,4.97325,0,0,1-1.71-.27734,3.86078,3.86078,0,0,1-1.3125-.77978,3.44945,3.44945,0,0,1-.84765-1.20752,3.93932,3.93932,0,0,1-.29981-1.56006,4.3229,4.3229,0,0,1,.32227-1.73242,3.35169,3.35169,0,0,1,.87793-1.22266,3.72,3.72,0,0,1,1.28222-.71973,4.877,4.877,0,0,1,1.53809-.24023,2.99633,2.99633,0,0,1,1.665.39013,1.16953,1.16953,0,0,1,.585,1.00489,1.08617,1.08617,0,0,1-.13574.53271,1.83714,1.83714,0,0,1-.31446.42725,4.95661,4.95661,0,0,0-.61523-.23242A2.61364,2.61364,0,0,0,383.44727,186.36992Z" fill="#f9f9f9"/><path d="M393.99316,188.22979a4.53111,4.53111,0,0,1-.28515,1.65773,3.29792,3.29792,0,0,1-2.04,1.97215,4.77365,4.77365,0,0,1-1.60547.25537,4.53322,4.53322,0,0,1-1.60449-.27,3.52173,3.52173,0,0,1-1.23731-.773,3.42435,3.42435,0,0,1-.80273-1.22217,4.70189,4.70189,0,0,1,0-3.2251,3.43494,3.43494,0,0,1,.80273-1.22265,3.52753,3.52753,0,0,1,1.23731-.77246,4.54423,4.54423,0,0,1,1.60449-.27,4.43072,4.43072,0,0,1,1.60547.27785,3.61511,3.61511,0,0,1,1.2373.77977,3.45677,3.45677,0,0,1,.80274,1.22265A4.29621,4.29621,0,0,1,393.99316,188.22979Zm-5.25,0a2.36757,2.36757,0,0,0,.35254,1.40234,1.1428,1.1428,0,0,0,.98243.48779,1.10166,1.10166,0,0,0,.96777-.49512,2.46166,2.46166,0,0,0,.33691-1.395,2.38471,2.38471,0,0,0-.34472-1.3877,1.21925,1.21925,0,0,0-1.9502,0A2.37732,2.37732,0,0,0,388.74316,188.22979Z" fill="#f9f9f9"/><path d="M399.8584,187.25469a.83846.83846,0,0,0-.2627-.68262,1.08649,1.08649,0,0,0-.71289-.21728,2.36589,2.36589,0,0,0-.59277.07519,1.49711,1.49711,0,0,0-.50195.22461v5.20508a3.57319,3.57319,0,0,1-.47266.09033,4.78154,4.78154,0,0,1-.667.04492,3.49643,3.49643,0,0,1-.59278-.04492,1.01561,1.01561,0,0,1-.44238-.18018.85818.85818,0,0,1-.27734-.36767,1.58154,1.58154,0,0,1-.09766-.60742v-4.5a1.16273,1.16273,0,0,1,.17188-.66016,1.82429,1.82429,0,0,1,.47265-.46484,4.30223,4.30223,0,0,1,1.28223-.585,6.14029,6.14029,0,0,1,1.71777-.2251,4.04832,4.04832,0,0,1,2.61035.74267,2.51112,2.51112,0,0,1,.915,2.0625v4.69483a3.57263,3.57263,0,0,1-.47265.09033,4.7856,4.7856,0,0,1-.668.04492,3.49251,3.49251,0,0,1-.5918-.04492,1.00583,1.00583,0,0,1-.44238-.18018.86778.86778,0,0,1-.27832-.36767,1.60232,1.60232,0,0,1-.09668-.60742Z" fill="#f9f9f9"/><path d="M410.13281,189.7a2.11159,2.11159,0,0,1-.85449,1.78467,4.14487,4.14487,0,0,1-2.52051.645,7.17883,7.17883,0,0,1-1.16992-.08985,3.33459,3.33459,0,0,1-.92187-.27732,1.65136,1.65136,0,0,1-.60059-.47268,1.08339,1.08339,0,0,1-.21777-.6748,1.15689,1.15689,0,0,1,.15039-.60791,1.49852,1.49852,0,0,1,.36035-.41211,6.00416,6.00416,0,0,0,.99707.42725,4.10269,4.10269,0,0,0,1.29785.1875,1.51635,1.51635,0,0,0,.71191-.13477.40532.40532,0,0,0,.248-.36035.37917.37917,0,0,0-.17969-.33008,1.68484,1.68484,0,0,0-.60058-.19482l-.4502-.08985a4.20677,4.20677,0,0,1-1.94238-.80273,1.9532,1.9532,0,0,1-.6377-1.56738,2.07164,2.07164,0,0,1,.915-1.75489,3.38792,3.38792,0,0,1,1.043-.46533,5.12472,5.12472,0,0,1,1.34278-.16455,6.23384,6.23384,0,0,1,1.042.08252,3.3899,3.3899,0,0,1,.84765.24707,1.53983,1.53983,0,0,1,.57032.42773.9674.9674,0,0,1,.21.62256,1.27919,1.27919,0,0,1-.12793.59229,1.32943,1.32943,0,0,1-.32227.4126,1.86289,1.86289,0,0,0-.36035-.15772q-.24024-.082-.52441-.1499-.28565-.06738-.57813-.11231a3.48067,3.48067,0,0,0-.53222-.04492,2.06024,2.06024,0,0,0-.76465.11231.373.373,0,0,0-.27051.35254.31582.31582,0,0,0,.15039.27,1.71515,1.71515,0,0,0,.56934.19483l.46582.105a4.42483,4.42483,0,0,1,2.04687.90771A1.9669,1.9669,0,0,1,410.13281,189.7Z" fill="#f9f9f9"/><path d="M413.91309,189.36992a.61582.61582,0,0,0,.24707.55469,1.24914,1.24914,0,0,0,.69824.165,3.02767,3.02767,0,0,0,.46484-.03711,2.62058,2.62058,0,0,0,.41992-.09766,1.86016,1.86016,0,0,1,.23243.36719,1.12549,1.12549,0,0,1,.09765.48779,1.16024,1.16024,0,0,1-.42773.93018,2.384,2.384,0,0,1-1.50781.35937,3.07277,3.07277,0,0,1-2.03223-.59961,2.41693,2.41693,0,0,1-.71289-1.95019v-6.41992c.11035-.02979.26758-.062.47265-.09717a3.86225,3.86225,0,0,1,.65235-.05273,1.923,1.923,0,0,1,1.02832.23242,1.08893,1.08893,0,0,1,.36719.98242v.96h1.96484a2.589,2.589,0,0,1,.17285.4126,1.734,1.734,0,0,1,.082.54785,1.03849,1.03849,0,0,1-.23242.75732.83987.83987,0,0,1-.62207.23243h-1.36523Z" fill="#f9f9f9"/><path d="M420.36328,184.35967a6.16694,6.16694,0,0,1,1.47754.165,3.32619,3.32619,0,0,1,1.13965.50244,2.26578,2.26578,0,0,1,.72754.855,2.74025,2.74025,0,0,1,.25488,1.22266v3.35986a.92808.92808,0,0,1-.21777.63769,2.14381,2.14381,0,0,1-.51758.42725,5.3539,5.3539,0,0,1-2.74414.58545,6.28913,6.28913,0,0,1-1.43262-.15039,3.391,3.391,0,0,1-1.0957-.44971,2.05921,2.05921,0,0,1-.7041-.76514,2.2645,2.2645,0,0,1-.24805-1.08007,2.03112,2.03112,0,0,1,.61523-1.58985,3.31593,3.31593,0,0,1,1.90528-.68994l1.96484-.21v-.105a.64339.64339,0,0,0-.38281-.62256,2.57278,2.57278,0,0,0-1.10254-.1875,5.13326,5.13326,0,0,0-1.11035.11963,5.95758,5.95758,0,0,0-.97461.30029,1.03769,1.03769,0,0,1-.33008-.41259,1.30675,1.30675,0,0,1-.13476-.57764.96377.96377,0,0,1,.1875-.62256,1.45758,1.45758,0,0,1,.57714-.39746,4.53564,4.53564,0,0,1,1.02735-.23975A8.96914,8.96914,0,0,1,420.36328,184.35967Zm.12012,5.895a3.34708,3.34708,0,0,0,.5625-.05225,1.37331,1.37331,0,0,0,.457-.14258v-1.20019l-1.08008.09033a1.66122,1.66122,0,0,0-.68945.17969.48412.48412,0,0,0-.27051.45019.59555.59555,0,0,0,.23242.48731A1.27187,1.27187,0,0,0,420.4834,190.25469Z" fill="#f9f9f9"/><path d="M430.14355,187.25469a.83848.83848,0,0,0-.26269-.68262,1.08653,1.08653,0,0,0-.71289-.21728,2.36583,2.36583,0,0,0-.59277.07519,1.49725,1.49725,0,0,0-.502.22461v5.20508a3.57263,3.57263,0,0,1-.47265.09033,4.78169,4.78169,0,0,1-.667.04492,3.49639,3.49639,0,0,1-.59277-.04492,1.01556,1.01556,0,0,1-.44238-.18018.85827.85827,0,0,1-.27735-.36767,1.58156,1.58156,0,0,1-.09765-.60742v-4.5a1.16273,1.16273,0,0,1,.17187-.66016,1.82433,1.82433,0,0,1,.47266-.46484,4.30211,4.30211,0,0,1,1.28223-.585,6.14029,6.14029,0,0,1,1.71777-.2251,4.04834,4.04834,0,0,1,2.61035.74267,2.51112,2.51112,0,0,1,.915,2.0625v4.69483a3.57285,3.57285,0,0,1-.47266.09033,4.7855,4.7855,0,0,1-.668.04492,3.49239,3.49239,0,0,1-.59179-.04492,1.00592,1.00592,0,0,1-.44239-.18018.86786.86786,0,0,1-.27832-.36767,1.60232,1.60232,0,0,1-.09668-.60742Z" fill="#f9f9f9"/><path d="M436.81836,189.36992a.61582.61582,0,0,0,.24707.55469,1.24914,1.24914,0,0,0,.69824.165,3.02779,3.02779,0,0,0,.46485-.03711,2.62084,2.62084,0,0,0,.41992-.09766,1.86058,1.86058,0,0,1,.23242.36719,1.12549,1.12549,0,0,1,.09766.48779,1.16022,1.16022,0,0,1-.42774.93018,2.384,2.384,0,0,1-1.50781.35937,3.07279,3.07279,0,0,1-2.03223-.59961,2.41693,2.41693,0,0,1-.71289-1.95019v-6.41992c.11035-.02979.26758-.062.47266-.09717a3.86213,3.86213,0,0,1,.65234-.05273,1.923,1.923,0,0,1,1.02832.23242,1.08893,1.08893,0,0,1,.36719.98242v.96h1.96484a2.589,2.589,0,0,1,.17285.4126,1.734,1.734,0,0,1,.082.54785,1.03845,1.03845,0,0,1-.23243.75732.83987.83987,0,0,1-.62207.23243h-1.36523Z" fill="#f9f9f9"/><path d="M313.21826,144.27227a5.85984,5.85984,0,0,1-.72461.126,7.70742,7.70742,0,0,1-.97656.06348,4.38448,4.38448,0,0,1-.85059-.0742,1.50688,1.50688,0,0,1-.61914-.26272,1.13437,1.13437,0,0,1-.37793-.52441,2.55767,2.55767,0,0,1-.126-.88184V132.827a.92289.92289,0,0,1,.24121-.68261,1.7266,1.7266,0,0,1,.66162-.3877,7.86749,7.86749,0,0,1,1.62744-.36816,14.78476,14.78476,0,0,1,1.8374-.11524,6.90283,6.90283,0,0,1,4.43116,1.23928,4.09288,4.09288,0,0,1,1.53271,3.35935,5.0517,5.0517,0,0,1-.3252,1.8584,3.85749,3.85749,0,0,1-.9663,1.42871,4.34079,4.34079,0,0,1-1.6167.92383,7.14558,7.14558,0,0,1-2.25782.3252h-1.49072Zm1.0918-6.74122a2.00981,2.00981,0,0,0,1.35449-.40918,1.56647,1.56647,0,0,0,.47266-1.25,1.54374,1.54374,0,0,0-.49366-1.22851,2.13137,2.13137,0,0,0-1.43847-.42969c-.22412,0-.40918.00293-.55615.00977a3.70688,3.70688,0,0,0-.45166.05273v3.25488Z" fill="#f9f9f9"/><path d="M333.126,144.27227a5.8602,5.8602,0,0,1-.72461.126,7.71343,7.71343,0,0,1-.97657.06348,4.38444,4.38444,0,0,1-.85058-.0742,1.50682,1.50682,0,0,1-.61914-.26272,1.1343,1.1343,0,0,1-.37793-.52441,2.54462,2.54462,0,0,1-.12647-.88184v-3.27636H325.419v4.83008a5.8602,5.8602,0,0,1-.72461.126,7.7077,7.7077,0,0,1-.97657.06348,4.38437,4.38437,0,0,1-.85058-.0742,1.50682,1.50682,0,0,1-.61914-.26272,1.1343,1.1343,0,0,1-.37793-.52441,2.5574,2.5574,0,0,1-.126-.88184V131.63066c.15381-.02832.39893-.0664.73486-.11621a6.71773,6.71773,0,0,1,.96582-.07324,4.392,4.392,0,0,1,.85059.07324,1.52479,1.52479,0,0,1,.61963.2627,1.13733,1.13733,0,0,1,.37793.52539,2.55762,2.55762,0,0,1,.126.88183v3.36036h4.03173v-4.91407c.1543-.02832.39942-.0664.73536-.11621a6.71752,6.71752,0,0,1,.96582-.07324,4.392,4.392,0,0,1,.85058.07324,1.52479,1.52479,0,0,1,.61963.2627,1.13726,1.13726,0,0,1,.37793.52539,2.55762,2.55762,0,0,1,.126.88183Z" fill="#f9f9f9"/><path d="M342.53418,144.27227a5.84894,5.84894,0,0,1-.71387.126,7.3136,7.3136,0,0,1-.94531.06348,2.60325,2.60325,0,0,1-1.44873-.32617,1.56819,1.56819,0,0,1-.48291-1.375v-2.835q-.52515-.77784-1.13428-1.72266-.60937-.94482-1.19678-1.93164-.58813-.9873-1.09228-1.94238a17.80907,17.80907,0,0,1-.81885-1.75391,2.85649,2.85649,0,0,1,.74561-.69238,2.05555,2.05555,0,0,1,1.16552-.31543,2.403,2.403,0,0,1,1.3335.33593,3.169,3.169,0,0,1,.97656,1.25977l1.74268,3.50781h.126q.29442-.65186.51464-1.18652.22047-.53613.43067-1.07129c.13965-.35742.28662-.72754.44092-1.11328q.2307-.57716.5249-1.333a3.67494,3.67494,0,0,1,.83984-.29394,3.96572,3.96572,0,0,1,.88233-.10547,2.01609,2.01609,0,0,1,1.24951.38867,1.36752,1.36752,0,0,1,.51416,1.165,2.21164,2.21164,0,0,1-.105.60937,6.77015,6.77015,0,0,1-.48291,1.08106q-.37794.7251-1.10254,1.96387-.72437,1.23925-1.96338,3.23437Z" fill="#f9f9f9"/><path d="M351.522,139.2957q-.92432-.3164-1.68017-.64062A5.13013,5.13013,0,0,1,348.54,137.867a3.2481,3.2481,0,0,1-.85059-1.10254,3.62163,3.62163,0,0,1-.30468-1.56445,3.43651,3.43651,0,0,1,1.37548-2.85547,6.14027,6.14027,0,0,1,3.85352-1.07129,10.5148,10.5148,0,0,1,1.68018.126,5.02184,5.02184,0,0,1,1.33349.38867,2.31955,2.31955,0,0,1,.87158.67188,1.524,1.524,0,0,1,.31494.95507,1.67922,1.67922,0,0,1-.252.93457,2.60578,2.60578,0,0,1-.60888.66211,4.72312,4.72312,0,0,0-1.23926-.51465,6.19717,6.19717,0,0,0-1.70117-.2207,2.80522,2.80522,0,0,0-1.38575.2627.76483.76483,0,0,0-.44091.66113.61079.61079,0,0,0,.27294.51465,2.78915,2.78915,0,0,0,.81885.36719l1.11328.35742a8.05377,8.05377,0,0,1,3.03418,1.60644,3.43455,3.43455,0,0,1,1.06055,2.65625,3.49565,3.49565,0,0,1-1.40674,2.8877,6.61076,6.61076,0,0,1-4.13721,1.10254,9.67229,9.67229,0,0,1-1.79541-.15723,5.698,5.698,0,0,1-1.44921-.46191,2.67941,2.67941,0,0,1-.96582-.75586,1.66288,1.66288,0,0,1-.34668-1.04,1.575,1.575,0,0,1,.35693-1.03906,2.72788,2.72788,0,0,1,.77734-.66211,5.6764,5.6764,0,0,0,1.43848.79785,5.00146,5.00146,0,0,0,1.8584.33594,2.49648,2.49648,0,0,0,1.44922-.31446.90883.90883,0,0,0,.41992-.73535.72121.72121,0,0,0-.33594-.64062,4.37076,4.37076,0,0,0-.94531-.42969Z" fill="#f9f9f9"/><path d="M363.15576,144.27227a5.85984,5.85984,0,0,1-.72461.126,7.70742,7.70742,0,0,1-.97656.06348,4.38448,4.38448,0,0,1-.85059-.0742,1.50688,1.50688,0,0,1-.61914-.26272,1.13437,1.13437,0,0,1-.37793-.52441,2.55767,2.55767,0,0,1-.126-.88184V131.63066c.15381-.02832.39892-.0664.73486-.11621a6.71773,6.71773,0,0,1,.96582-.07324,4.392,4.392,0,0,1,.85059.07324,1.52479,1.52479,0,0,1,.61963.2627,1.1374,1.1374,0,0,1,.37793.52539,2.55765,2.55765,0,0,1,.126.88183Z" fill="#f9f9f9"/><path d="M372.37451,134.19219a3.11055,3.11055,0,0,0-2.478.9873,4.1152,4.1152,0,0,0-.86084,2.793,3.879,3.879,0,0,0,.95557,2.81348,3.41294,3.41294,0,0,0,2.57227.9873,4.06015,4.06015,0,0,0,1.45947-.23144,9.88338,9.88338,0,0,0,1.14453-.52442,2.099,2.099,0,0,1,.55664.70313,2.1633,2.1633,0,0,1,.19922.95605,1.71854,1.71854,0,0,1-.95557,1.459,5.58181,5.58181,0,0,1-2.9082.59863,8.56262,8.56262,0,0,1-2.646-.39941,5.89723,5.89723,0,0,1-2.16308-1.22754,5.79637,5.79637,0,0,1-1.45947-2.10059,7.788,7.788,0,0,1-.53565-3.03418,7.53493,7.53493,0,0,1,.51465-2.88769,6.12835,6.12835,0,0,1,1.40723-2.11036,5.91447,5.91447,0,0,1,2.08935-1.30175,7.35258,7.35258,0,0,1,2.562-.44141,5.8951,5.8951,0,0,1,2.99219.62988,1.85442,1.85442,0,0,1,1.06055,1.61719,1.63319,1.63319,0,0,1-.27295.94531,2.25977,2.25977,0,0,1-.62988.62989,6.8221,6.8221,0,0,0-1.16553-.60938A3.79926,3.79926,0,0,0,372.37451,134.19219Z" fill="#f9f9f9"/><path d="M381.48877,139.2957q-.92431-.3164-1.68018-.64062a5.13024,5.13024,0,0,1-1.30175-.78809,3.2481,3.2481,0,0,1-.85059-1.10254,3.62162,3.62162,0,0,1-.30469-1.56445,3.43652,3.43652,0,0,1,1.37549-2.85547,6.14025,6.14025,0,0,1,3.85352-1.07129,10.51458,10.51458,0,0,1,1.68017.126,5.02192,5.02192,0,0,1,1.3335.38867,2.31962,2.31962,0,0,1,.87158.67188,1.524,1.524,0,0,1,.31494.95507,1.67922,1.67922,0,0,1-.25195.93457,2.60581,2.60581,0,0,1-.60889.66211,4.72282,4.72282,0,0,0-1.23926-.51465,6.19712,6.19712,0,0,0-1.70117-.2207,2.80521,2.80521,0,0,0-1.38574.2627.76482.76482,0,0,0-.44092.66113.61078.61078,0,0,0,.27295.51465,2.789,2.789,0,0,0,.81885.36719l1.11328.35742a8.05377,8.05377,0,0,1,3.03418,1.60644,3.43455,3.43455,0,0,1,1.06055,2.65625,3.49565,3.49565,0,0,1-1.40674,2.8877,6.61078,6.61078,0,0,1-4.13721,1.10254,9.67229,9.67229,0,0,1-1.79541-.15723,5.69826,5.69826,0,0,1-1.44922-.46191,2.67958,2.67958,0,0,1-.96582-.75586,1.66294,1.66294,0,0,1-.34668-1.04,1.57492,1.57492,0,0,1,.35694-1.03906,2.72788,2.72788,0,0,1,.77734-.66211,5.67623,5.67623,0,0,0,1.43848.79785,5.00144,5.00144,0,0,0,1.85839.33594,2.49643,2.49643,0,0,0,1.44922-.31446.90882.90882,0,0,0,.41993-.73535.72121.72121,0,0,0-.33594-.64062,4.37076,4.37076,0,0,0-.94531-.42969Z" fill="#f9f9f9"/></svg>